<svg width="32" height="20" viewBox="0 0 32 20" fill="none" xmlns="http://www.w3.org/2000/svg">
<path d="M32 9.88841C32 15.3545 27.5777 19.7768 22.1116 19.7768C19.8043 19.7768 17.6893 18.9803 16.0138 17.6618C18.3211 15.8489 19.7768 13.0472 19.7768 9.88841C19.7768 6.72961 18.2936 3.9279 16.0138 2.11503C17.6893 0.79657 19.8043 0 22.1116 0C27.5777 0 32 4.44979 32 9.88841Z" fill="#F79E1B"/>
<path d="M16.0138 2.11503C16.0138 2.11503 16.0138 2.11502 16.0138 2.11503C18.2936 3.9279 19.7768 6.72961 19.7768 9.88841C19.7768 13.0472 18.3211 15.8489 16.0138 17.6618L15.9862 17.6618C13.7064 15.8764 12.2232 13.0472 12.2232 9.88847C12.2232 6.72967 13.7064 3.92796 15.9863 2.11508C15.9862 2.11506 15.9863 2.1151 15.9863 2.11508L16.0138 2.11503Z" fill="#FF5F00"/>
<path d="M12.2232 9.88847C12.2232 6.72967 13.7064 3.92796 15.9863 2.11508C14.3107 0.796626 12.1957 4.27246e-05 9.88841 4.27246e-05C4.42232 4.27246e-05 0 4.42236 0 9.88845C0 15.3545 4.42232 19.7769 9.88841 19.7769C12.1957 19.7769 14.3106 18.9803 15.9862 17.6618C13.7064 15.8764 12.2232 13.0472 12.2232 9.88847Z" fill="#EB001B"/>
</svg>
