<svg width="50" height="20" viewBox="0 0 50 20" fill="none" xmlns="http://www.w3.org/2000/svg">
<path d="M9.46997 2.5785C8.89631 3.25404 7.97844 3.78687 7.06057 3.71075C6.94584 2.79734 7.39521 1.82683 7.92107 1.2274C8.49474 0.532826 9.49866 0.038059 10.3114 0C10.407 0.951475 10.0341 1.88392 9.46997 2.5785ZM10.3018 3.89153C8.9728 3.81541 7.83502 4.6432 7.20399 4.6432C6.56339 4.6432 5.59772 3.92959 4.54599 3.94862C3.17875 3.96765 1.90712 4.73834 1.20916 5.96575C-0.225009 8.42055 0.836276 12.0552 2.22264 14.0533C2.90148 15.0428 3.71418 16.1275 4.78502 16.0894C5.7985 16.0514 6.20007 15.4329 7.42389 15.4329C8.65728 15.4329 9.01104 16.0894 10.0819 16.0704C11.191 16.0514 11.8889 15.0809 12.5678 14.0913C13.3422 12.9686 13.6578 11.8744 13.6769 11.8173C13.6578 11.7983 11.5352 10.9895 11.5161 8.55376C11.4969 6.5176 13.1893 5.5471 13.2657 5.49001C12.3096 4.08183 10.8181 3.92959 10.3018 3.89153ZM17.9794 1.13225V15.9657H20.2932V10.8944H23.4962C26.4219 10.8944 28.4775 8.89629 28.4775 6.00381C28.4775 3.11132 26.4601 1.13225 23.5726 1.13225H17.9794ZM20.2932 3.07326H22.9607C24.9686 3.07326 26.1159 4.13892 26.1159 6.01332C26.1159 7.88773 24.9686 8.96289 22.9512 8.96289H20.2932V3.07326ZM32.7035 16.0799C34.1568 16.0799 35.5049 15.3473 36.1168 14.1865H36.1646V15.9657H38.3063V8.5823C38.3063 6.44148 36.5853 5.06185 33.9369 5.06185C31.4797 5.06185 29.6631 6.46051 29.5962 8.38249H31.6805C31.8526 7.46908 32.7035 6.86965 33.87 6.86965C35.285 6.86965 36.0786 7.52617 36.0786 8.73454V9.55281L33.1911 9.72407C30.5045 9.88582 29.0512 10.98 29.0512 12.883C29.0512 14.8049 30.5523 16.0799 32.7035 16.0799ZM33.325 14.3197C32.0916 14.3197 31.3076 13.7298 31.3076 12.8259C31.3076 11.8934 32.0629 11.3511 33.5067 11.2655L36.0786 11.1037V11.941C36.0786 13.3302 34.893 14.3197 33.325 14.3197ZM41.1651 20C43.4215 20 44.4828 19.1437 45.4103 16.5461L49.4737 5.20457H47.1217L44.3968 13.9677H44.349L41.6241 5.20457H39.2051L43.1251 16.0038L42.9148 16.6603C42.561 17.7736 41.9874 18.2017 40.9643 18.2017C40.7827 18.2017 40.4289 18.1827 40.2855 18.1637V19.9429C40.4193 19.981 40.993 20 41.1651 20Z" fill="white"/>
</svg>
