<svg width="24" height="24" viewBox="0 0 24 24" fill="none" xmlns="http://www.w3.org/2000/svg">
<path d="M17.8333 5.33333H16.9167C16.5333 3.43333 14.85 2 12.8333 2H11.1667C9.15833 2 7.475 3.43333 7.08333 5.33333H6.16667C3.86667 5.33333 2 7.2 2 9.5V17.8333C2 20.1333 3.86667 22 6.16667 22H17.8333C20.1333 22 22 20.1333 22 17.8333V9.5C22 7.2 20.1333 5.33333 17.8333 5.33333ZM11.1667 3.66667H12.8333C13.9167 3.66667 14.85 4.36667 15.1917 5.33333H8.80833C9.15 4.36667 10.075 3.66667 11.1667 3.66667ZM20.3333 17.8333C20.3333 19.2083 19.2083 20.3333 17.8333 20.3333H6.16667C4.79167 20.3333 3.66667 19.2083 3.66667 17.8333V9.5C3.66667 8.125 4.79167 7 6.16667 7H17.8333C19.2083 7 20.3333 8.125 20.3333 9.5V17.8333Z" fill="#A498D9"/>
</svg>
