<svg width="32" height="32" viewBox="0 0 32 32" fill="none" xmlns="http://www.w3.org/2000/svg">
<path d="M27.5593 30.4H3.64068C2.29269 30.4 1.2 29.3089 1.2 27.963V6.43689C1.2 5.09098 2.29269 3.99996 3.64068 3.99996H27.5593C28.9073 3.99996 30 5.09098 30 6.43689V27.963C30 29.3089 28.9073 30.4 27.5593 30.4Z" stroke="#795BDA" stroke-width="2" stroke-miterlimit="10" stroke-linecap="round" stroke-linejoin="round"/>
<path d="M30 11.2H1.2" stroke="#795BDA" stroke-width="2" stroke-miterlimit="10" stroke-linecap="round" stroke-linejoin="round"/>
<path d="M8.4 1.59996V6.39996" stroke="#795BDA" stroke-width="2" stroke-miterlimit="10" stroke-linecap="round" stroke-linejoin="round"/>
<path d="M22.8 1.59996V6.39996" stroke="#795BDA" stroke-width="2" stroke-miterlimit="10" stroke-linecap="round" stroke-linejoin="round"/>
<path d="M6.8 17.6H10" stroke="#795BDA" stroke-width="2" stroke-miterlimit="10" stroke-linecap="round" stroke-linejoin="round"/>
<path d="M14.4686 16.4686L16.7314 18.7314" stroke="#A498D9" stroke-width="1.5" stroke-miterlimit="10" stroke-linecap="round" stroke-linejoin="round"/>
<path d="M16.7314 16.4686L14.4686 18.7314" stroke="#A498D9" stroke-width="1.5" stroke-miterlimit="10" stroke-linecap="round" stroke-linejoin="round"/>
<path d="M21.2 17.6H24.4" stroke="#795BDA" stroke-width="2" stroke-miterlimit="10" stroke-linecap="round" stroke-linejoin="round"/>
<path d="M7.26863 22.8687L9.53138 25.1314" stroke="#A498D9" stroke-width="1.5" stroke-miterlimit="10" stroke-linecap="round" stroke-linejoin="round"/>
<path d="M9.53138 22.8687L7.26863 25.1314" stroke="#A498D9" stroke-width="1.5" stroke-miterlimit="10" stroke-linecap="round" stroke-linejoin="round"/>
<path d="M14 24H17.2" stroke="#795BDA" stroke-width="2" stroke-miterlimit="10" stroke-linecap="round" stroke-linejoin="round"/>
<path d="M21.2 24H24.4" stroke="#795BDA" stroke-width="2" stroke-miterlimit="10" stroke-linecap="round" stroke-linejoin="round"/>
</svg>
