<svg width="25" height="24" viewBox="0 0 25 24" fill="none" xmlns="http://www.w3.org/2000/svg">
<path d="M7.0835 16.1667C7.77385 16.1667 8.3335 15.6071 8.3335 14.9167C8.3335 14.2264 7.77385 13.6667 7.0835 13.6667C6.39314 13.6667 5.8335 14.2264 5.8335 14.9167C5.8335 15.6071 6.39314 16.1667 7.0835 16.1667Z" fill="#795BDA"/>
<path d="M18.3333 4.5H6.66667C5.562 4.50132 4.50296 4.94073 3.72185 5.72185C2.94073 6.50296 2.50132 7.562 2.5 8.66667L2.5 15.3333C2.50132 16.438 2.94073 17.497 3.72185 18.2782C4.50296 19.0593 5.562 19.4987 6.66667 19.5H18.3333C19.438 19.4987 20.497 19.0593 21.2782 18.2782C22.0593 17.497 22.4987 16.438 22.5 15.3333V8.66667C22.4987 7.562 22.0593 6.50296 21.2782 5.72185C20.497 4.94073 19.438 4.50132 18.3333 4.5ZM6.66667 6.16667H18.3333C18.9964 6.16667 19.6323 6.43006 20.1011 6.8989C20.5699 7.36774 20.8333 8.00363 20.8333 8.66667H4.16667C4.16667 8.00363 4.43006 7.36774 4.8989 6.8989C5.36774 6.43006 6.00363 6.16667 6.66667 6.16667ZM18.3333 17.8333H6.66667C6.00363 17.8333 5.36774 17.5699 4.8989 17.1011C4.43006 16.6323 4.16667 15.9964 4.16667 15.3333V10.3333H20.8333V15.3333C20.8333 15.9964 20.5699 16.6323 20.1011 17.1011C19.6323 17.5699 18.9964 17.8333 18.3333 17.8333Z" fill="#795BDA"/>
</svg>
