<svg width="16" height="16" viewBox="0 0 16 16" fill="none" xmlns="http://www.w3.org/2000/svg">
<path d="M8 16C6.916 16 5.89333 15.524 5.19467 14.694C4.168 14.8113 3.11 14.424 2.34333 13.6573C1.57733 12.8907 1.19067 11.8307 1.28333 10.7493C0.476 10.1067 0 9.084 0 8C0 6.916 0.476 5.89333 1.30667 5.19467C1.19 4.17 1.57667 3.11 2.34333 2.34333C3.11 1.57667 4.168 1.188 5.25067 1.28333C5.89333 0.476667 6.916 0 8 0C9.084 0 10.1067 0.476 10.8053 1.306C11.8333 1.19067 12.89 1.576 13.6567 2.34267C14.4227 3.10933 14.8093 4.16933 14.7167 5.25067C15.524 5.89333 16 6.916 16 8C16 9.084 15.524 10.1067 14.6933 10.8053C14.81 11.83 14.4233 12.89 13.6567 13.6567C12.8893 14.4233 11.8293 14.8073 10.7493 14.7167C10.1067 15.5233 9.084 16 8 16ZM5.24867 13.384C5.62267 13.384 5.96933 13.5447 6.214 13.8347C6.65933 14.3633 7.31 14.6667 8 14.6667C8.69 14.6667 9.34067 14.3633 9.786 13.8347C10.0547 13.5153 10.446 13.354 10.8633 13.388C11.5527 13.446 12.226 13.2013 12.714 12.7133C13.2013 12.226 13.4473 11.5513 13.3887 10.8627C13.3527 10.4467 13.5153 10.054 13.8353 9.78467C14.3633 9.34 14.6667 8.68867 14.6667 7.99933C14.6667 7.31 14.3633 6.65867 13.8353 6.214C13.516 5.94533 13.3527 5.552 13.3887 5.136C13.4473 4.44733 13.202 3.77267 12.714 3.28533C12.226 2.798 11.5487 2.556 10.864 2.61067C10.4467 2.648 10.0547 2.48333 9.786 2.16467C9.34067 1.636 8.69 1.33267 8 1.33267C7.31 1.33267 6.65933 1.636 6.214 2.16467C5.94467 2.484 5.552 2.644 5.13667 2.61133C4.444 2.55133 3.774 2.798 3.286 3.286C2.79867 3.77333 2.55267 4.448 2.61133 5.13667C2.64733 5.55267 2.48467 5.94533 2.16467 6.21467C1.63667 6.65933 1.33333 7.31067 1.33333 8C1.33333 8.68933 1.63667 9.34067 2.16467 9.78533C2.484 10.054 2.64733 10.4473 2.61133 10.8633C2.55267 11.552 2.798 12.2267 3.286 12.714C3.774 13.2013 4.45467 13.444 5.136 13.3887C5.174 13.3853 5.21133 13.384 5.24867 13.384ZM8.534 10.09L11.6933 7.04467C11.958 6.78933 11.966 6.36667 11.71 6.102C11.4547 5.83733 11.0327 5.82933 10.7673 6.08467L7.59933 9.13867C7.33867 9.39933 6.918 9.39933 6.63933 9.122L5.12067 7.71067C4.85267 7.46067 4.43 7.47533 4.17867 7.74533C3.928 8.01467 3.94333 8.43667 4.21333 8.68733L5.71467 10.082C6.10533 10.4727 6.61933 10.668 7.132 10.668C7.642 10.668 8.14933 10.4753 8.53467 10.0907L8.534 10.09Z" fill="#795BDA"/>
</svg>
