<svg width="24" height="24" viewBox="0 0 24 24" fill="none" xmlns="http://www.w3.org/2000/svg">
<path d="M12 20C7.58867 20 4 16.4113 4 12C4 7.58867 7.58867 4 12 4C16.4113 4 20 7.58867 20 12C20 16.4113 16.4113 20 12 20ZM12 5.33333C8.324 5.33333 5.33333 8.324 5.33333 12C5.33333 15.676 8.324 18.6667 12 18.6667C15.676 18.6667 18.6667 15.676 18.6667 12C18.6667 8.324 15.676 5.33333 12 5.33333ZM15.3333 12C15.3333 11.6313 15.0353 11.3333 14.6667 11.3333H12.6667V8C12.6667 7.63133 12.368 7.33333 12 7.33333C11.632 7.33333 11.3333 7.63133 11.3333 8V12C11.3333 12.3687 11.632 12.6667 12 12.6667H14.6667C15.0353 12.6667 15.3333 12.3687 15.3333 12Z" fill="#A498D9"/>
</svg>
