<svg width="52" height="20" viewBox="0 0 52 20" fill="none" xmlns="http://www.w3.org/2000/svg">
<path d="M24.6277 9.7708V15.6333H22.7549V1.15551H27.7219C28.3147 1.14321 28.9042 1.24764 29.4562 1.46276C30.0083 1.67788 30.5119 1.99944 30.9382 2.40888C31.3687 2.79346 31.7114 3.26511 31.9431 3.79212C32.1748 4.31914 32.2903 4.88931 32.2817 5.46431C32.294 6.0424 32.1803 6.61629 31.9484 7.14666C31.7165 7.67704 31.3719 8.15134 30.9382 8.53708C30.0696 9.35956 28.9975 9.77042 27.7219 9.76965H24.6277V9.7708ZM24.6277 2.93795V7.99184H27.7684C28.1127 8.00197 28.4553 7.94063 28.7744 7.81173C29.0935 7.68284 29.382 7.48923 29.6214 7.24328C29.8596 7.01333 30.0489 6.73829 30.1782 6.43441C30.3074 6.13054 30.374 5.80401 30.374 5.47413C30.374 5.14425 30.3074 4.81772 30.1782 4.51385C30.0489 4.20998 29.8596 3.93494 29.6214 3.70498C29.385 3.45386 29.0975 3.2555 28.778 3.12306C28.4586 2.99063 28.1144 2.92713 27.7684 2.93679H24.6277V2.93795Z" fill="white"/>
<path d="M36.596 5.4043C37.9803 5.4043 39.0729 5.77164 39.874 6.50633C40.6751 7.24102 41.0752 8.24834 41.0745 9.52827V15.6334H39.2831V14.2587H39.2017C38.4262 15.3908 37.3948 15.9568 36.1075 15.9568C35.0086 15.9568 34.0893 15.6334 33.3495 14.9865C32.9944 14.6896 32.7106 14.3177 32.5186 13.8981C32.3266 13.4784 32.2314 13.0215 32.2398 12.5606C32.2398 11.5356 32.6298 10.7204 33.41 10.1151C34.1901 9.50979 35.2316 9.20636 36.5344 9.20482C37.6464 9.20482 38.5623 9.40698 39.2819 9.81129V9.38618C39.284 9.072 39.2157 8.76128 39.0819 8.47656C38.9481 8.19184 38.7522 7.94026 38.5084 7.74006C38.0131 7.29633 37.3677 7.05422 36.7007 7.06197C35.6546 7.06197 34.8268 7.50017 34.2172 8.37656L32.5678 7.34499C33.4751 6.05119 34.8179 5.4043 36.596 5.4043ZM34.173 12.601C34.1718 12.8377 34.2275 13.0713 34.3356 13.2823C34.4436 13.4933 34.6009 13.6756 34.7942 13.814C35.2084 14.1375 35.7225 14.3089 36.2494 14.2991C37.0397 14.2978 37.7972 13.9854 38.356 13.4304C38.9764 12.8506 39.2866 12.1702 39.2866 11.3893C38.7026 10.9272 37.8884 10.6962 36.8438 10.6962C36.0831 10.6962 35.4487 10.8783 34.9408 11.2425C34.4278 11.6122 34.173 12.0616 34.173 12.601Z" fill="white"/>
<path d="M51.358 5.72778L45.1045 20H43.1712L45.4919 15.0061L41.3799 5.72778H43.4155L46.3876 12.8437H46.4283L49.3189 5.72778H51.358Z" fill="white"/>
<path d="M17.0586 8.50709C17.0593 7.94031 17.0111 7.37451 16.9144 6.81592H9.01611V10.0192H13.5399C13.4473 10.5308 13.2514 11.0185 12.9639 11.4529C12.6764 11.8873 12.3034 12.2594 11.8672 12.5467V14.6261H14.567C16.1478 13.1786 17.0586 11.0381 17.0586 8.50709Z" fill="#4285F4"/>
<path d="M9.0172 16.6351C11.2773 16.6351 13.1804 15.8981 14.5681 14.6274L11.8683 12.5481C11.1168 13.0541 10.149 13.3428 9.0172 13.3428C6.83267 13.3428 4.97849 11.8804 4.31545 9.90967H1.53418V12.0525C2.23126 13.43 3.30016 14.588 4.62154 15.3973C5.94292 16.2065 7.46478 16.635 9.0172 16.6351Z" fill="#34A853"/>
<path d="M4.31468 9.90952C3.96416 8.87684 3.96416 7.75853 4.31468 6.72586V4.58301H1.53341C0.947004 5.74183 0.641602 7.02077 0.641602 8.31769C0.641602 9.6146 0.947004 10.8935 1.53341 12.0524L4.31468 9.90952Z" fill="#FBBC04"/>
<path d="M9.0172 3.29279C10.2116 3.27341 11.3657 3.72157 12.23 4.54038L14.6205 2.1665C13.1047 0.752652 11.0966 -0.0235733 9.0172 0.00054569C7.46478 0.000615953 5.94292 0.429179 4.62154 1.23839C3.30016 2.0476 2.23126 3.2056 1.53418 4.58312L4.31545 6.72597C4.97849 4.75524 6.83267 3.29279 9.0172 3.29279Z" fill="#EA4335"/>
</svg>
