<svg width="25" height="24" viewBox="0 0 25 24" fill="none" xmlns="http://www.w3.org/2000/svg">
<path d="M4.49921 20H12.9865C14.6447 19.9992 16.2665 19.5134 17.652 18.6024C19.0376 17.6915 20.1265 16.3951 20.7845 14.8731C21.4425 13.351 21.641 11.6697 21.3554 10.0362C21.0699 8.4028 20.3128 6.88855 19.1774 5.68001C18.042 4.47147 16.5779 3.62141 14.9654 3.23456C13.353 2.8477 11.6626 2.94093 10.1024 3.50276C8.54231 4.0646 7.18058 5.07051 6.18498 6.39658C5.18938 7.72265 4.6034 9.31098 4.49921 10.9659V11.0105V20ZM12.9865 4.41667C14.8651 4.41667 16.6668 5.16294 17.9951 6.49133C19.3235 7.81971 20.0698 9.62138 20.0698 11.5C20.0698 13.3786 19.3235 15.1803 17.9951 16.5087C16.6668 17.8371 14.8651 18.5833 12.9865 18.5833H5.91588V11.0332C6.03734 9.23993 6.83479 7.55956 8.14717 6.33145C9.45955 5.10335 11.1891 4.41902 12.9865 4.41667Z" fill="white"/>
<path d="M8.5 7.95825H12.5V9.37492H8.5V7.95825Z" fill="white"/>
<path d="M8.5 10.7917H15.5V12.2084H8.5V10.7917Z" fill="white"/>
<path d="M8.5 13.625H15.5V15.0417H8.5V13.625Z" fill="white"/>
</svg>
