<svg width="25" height="24" viewBox="0 0 25 24" fill="none" xmlns="http://www.w3.org/2000/svg">
<path d="M17.75 4.5H17V3.75C17 3.336 16.6648 3 16.25 3C15.8352 3 15.5 3.336 15.5 3.75V4.5H9.5V3.75C9.5 3.336 9.16475 3 8.75 3C8.33525 3 8 3.336 8 3.75V4.5H7.25C5.18225 4.5 3.5 6.18225 3.5 8.25V17.25C3.5 19.3177 5.18225 21 7.25 21H17.75C19.8177 21 21.5 19.3177 21.5 17.25V8.25C21.5 6.18225 19.8177 4.5 17.75 4.5ZM7.25 6H17.75C18.9905 6 20 7.0095 20 8.25V9H5V8.25C5 7.0095 6.0095 6 7.25 6ZM17.75 19.5H7.25C6.0095 19.5 5 18.4905 5 17.25V10.5H20V17.25C20 18.4905 18.9905 19.5 17.75 19.5ZM16.874 11.864C17.162 12.1618 17.153 12.6372 16.8552 12.9245L13.3003 16.3505C12.8855 16.7653 12.32 17 11.7192 17C11.1185 17 10.553 16.766 10.1285 16.3407L8.4395 14.7717C8.1365 14.4897 8.1185 14.015 8.4005 13.712C8.684 13.4082 9.158 13.3918 9.46025 13.673L11.1688 15.2607C11.4935 15.5833 11.966 15.5623 12.248 15.2803L15.8135 11.8438C16.112 11.5565 16.586 11.5662 16.874 11.864Z" fill="#795BDA"/>
</svg>
