<svg width="34" height="34" viewBox="0 0 34 34" fill="none" xmlns="http://www.w3.org/2000/svg">
<path d="M3.99038 13.4371L9.72687 19.1735" stroke="#795BDA" stroke-width="2" stroke-miterlimit="10" stroke-linecap="round" stroke-linejoin="round"/>
<path d="M11.7097 15.8061L6.21774 10.2802C5.48629 9.5442 4.3003 9.5442 3.56879 10.2802C2.83728 11.0162 2.83728 12.2096 3.56879 12.9456L9.06069 18.4715L4.89327 14.2783C4.16175 13.5422 2.97576 13.5422 2.24425 14.2783C1.51286 15.0143 1.51286 16.2076 2.24425 16.9437L7.81494 22.5488C9.63111 24.3762 16.1652 28.6869 20.3191 28.2696M7.54228 11.6129L4.97362 9.02836C4.24211 8.29232 4.24211 7.09904 4.97362 6.363C5.70513 5.62696 6.89113 5.62696 7.62258 6.363L14.3587 13.1408L8.94711 7.69568C8.2156 6.9597 8.2156 5.76632 8.94711 5.03034C9.67863 4.2943 10.8646 4.2943 11.5961 5.03034L20.3191 13.8074L20.3191 9.5802C20.3191 8.5394 21.1576 7.69568 22.192 7.69568C23.2263 7.69568 24.0649 8.5394 24.0649 9.5802L25.3478 20.0635" stroke="#795BDA" stroke-width="2" stroke-miterlimit="10" stroke-linecap="round" stroke-linejoin="round"/>
<path d="M7.9566 33C4.11464 33 1.0001 29.8855 1.0001 26.0435" stroke="#A498D9" stroke-width="1.5" stroke-miterlimit="10" stroke-linecap="round" stroke-linejoin="round"/>
<path d="M7.9566 29.5217C6.03562 29.5217 4.47835 27.9644 4.47835 26.0434" stroke="#A498D9" stroke-width="1.5" stroke-miterlimit="10" stroke-linecap="round" stroke-linejoin="round"/>
<path d="M26.0435 1.00004C29.8855 1.00004 33 4.11458 33 7.95654" stroke="#A498D9" stroke-width="1.5" stroke-miterlimit="10" stroke-linecap="round" stroke-linejoin="round"/>
<path d="M26.0435 4.47829C27.9645 4.47829 29.5217 6.03556 29.5217 7.95654" stroke="#A498D9" stroke-width="1.5" stroke-miterlimit="10" stroke-linecap="round" stroke-linejoin="round"/>
</svg>
