<svg width="20" height="17" viewBox="0 0 20 17" fill="none" xmlns="http://www.w3.org/2000/svg">
<path fill-rule="evenodd" clip-rule="evenodd" d="M7.36862 0.323724C8.25146 0.623228 9.04419 1.13989 9.67347 1.82588C10.3027 2.51186 10.7482 3.345 10.9686 4.24816C11.9144 3.50264 13.0773 3.08292 14.2828 3.05201C15.4883 3.0211 16.6713 3.38065 17.6543 4.07671C18.6373 4.77277 19.3674 5.76781 19.7349 6.91249C20.1023 8.05717 20.0875 9.28977 19.6925 10.4253C18.1993 14.7677 10.1504 16.6025 6.48906 17C4.01406 14.3395 -1.27345 8.27452 0.281093 3.74868C0.519254 3.05847 0.891552 2.42179 1.3767 1.87504C1.86185 1.3283 2.45034 0.882204 3.10854 0.562241C3.76675 0.242278 4.48178 0.0547238 5.21274 0.0102998C5.9437 -0.0341241 6.67628 0.0654481 7.36862 0.303333" fill="#FF5C8D"/>
</svg>
