<svg width="25" height="24" viewBox="0 0 25 24" fill="none" xmlns="http://www.w3.org/2000/svg">
<path d="M13.0841 12.8334C12.8368 12.8334 12.5952 12.76 12.3896 12.6227C12.184 12.4853 12.0238 12.2901 11.9292 12.0617C11.8346 11.8333 11.8099 11.582 11.8581 11.3395C11.9063 11.097 12.0254 10.8743 12.2002 10.6995C12.375 10.5247 12.5977 10.4056 12.8402 10.3574C13.0827 10.3091 13.334 10.3339 13.5624 10.4285C13.7908 10.5231 13.9861 10.6833 14.1234 10.8889C14.2608 11.0945 14.3341 11.3361 14.3341 11.5834C14.3341 11.9149 14.2024 12.2328 13.968 12.4672C13.7335 12.7017 13.4156 12.8334 13.0841 12.8334ZM19.2099 8.89502C18.8753 6.96177 17.8677 5.20917 16.3654 3.94731C14.863 2.68545 12.9627 1.99567 11.0007 2.00002C5.25074 2.00002 3.60407 5.89502 2.51657 8.47252C2.29606 9.20181 1.92118 9.87511 1.4174 10.4467C1.26691 10.5345 1.14771 10.6672 1.07657 10.8262C1.00542 10.9852 0.9859 11.1626 1.02076 11.3333C1.05561 11.504 1.14309 11.6594 1.27089 11.7778C1.39869 11.8962 1.56038 11.9716 1.73324 11.9934C3.79307 12.1666 5.86476 11.8525 7.78074 11.0767C7.67503 11.311 7.6441 11.5721 7.69217 11.8246C7.74023 12.0771 7.86496 12.3086 8.04936 12.4876C8.23376 12.6667 8.46886 12.7845 8.72265 12.8251C8.97644 12.8657 9.23658 12.8271 9.46763 12.7145C9.69868 12.602 9.88941 12.4209 10.0138 12.196C10.1383 11.9711 10.1904 11.7133 10.163 11.4578C10.1357 11.2022 10.0302 10.9613 9.86099 10.7679C9.69178 10.5744 9.46705 10.4378 9.2174 10.3767C10.8546 9.45956 12.2657 8.18764 13.3474 6.65419C13.416 6.56553 13.4661 6.46393 13.4945 6.35548C13.523 6.24702 13.5293 6.13394 13.513 6.023C13.4967 5.91207 13.4582 5.80556 13.3998 5.70985C13.3414 5.61415 13.2642 5.53122 13.173 5.46603C13.0818 5.40083 12.9783 5.35472 12.8689 5.33045C12.7594 5.30618 12.6462 5.30425 12.5359 5.32477C12.4257 5.3453 12.3208 5.38786 12.2274 5.4499C12.134 5.51194 12.0541 5.5922 11.9924 5.68585C11.0206 7.05406 9.75199 8.18481 8.28149 8.99352C6.81098 9.80222 5.17665 10.2679 3.50074 10.3559C3.6899 9.97835 3.86574 9.55919 4.0524 9.12002C5.0774 6.69002 6.35324 3.66669 11.0007 3.66669C12.6473 3.66275 14.2367 4.26994 15.4612 5.37068C16.6857 6.47142 17.4582 7.98738 17.6291 9.62502C17.6482 9.80407 17.7247 9.97213 17.8473 10.104C17.9699 10.2359 18.1319 10.3246 18.3091 10.3567C18.6127 10.4161 18.8835 10.5859 19.0691 10.8334C19.2547 11.0809 19.342 11.3884 19.314 11.6965C19.286 12.0046 19.1448 12.2914 18.9176 12.5014C18.6904 12.7114 18.3934 12.8297 18.0841 12.8334C18.0136 12.8314 17.9434 12.8239 17.8741 12.8109C17.6797 12.7754 17.4791 12.8106 17.3084 12.9101C17.1377 13.0096 17.0082 13.1668 16.9432 13.3534C16.1799 15.5175 13.6107 17.8334 11.0007 17.8334C8.58407 17.8334 6.33407 15.9309 5.3624 14.0509C5.26074 13.8546 5.08527 13.7068 4.87461 13.6399C4.66394 13.573 4.43533 13.5925 4.23907 13.6942C4.04281 13.7959 3.89498 13.9713 3.82809 14.182C3.7612 14.3927 3.78074 14.6213 3.8824 14.8175C4.74608 16.429 6.0616 17.7533 7.6674 18.6275V21.1667C7.6674 21.3877 7.7552 21.5997 7.91148 21.7559C8.06776 21.9122 8.27972 22 8.50074 22C8.72175 22 8.93371 21.9122 9.08999 21.7559C9.24627 21.5997 9.33407 21.3877 9.33407 21.1667V19.2817C10.4258 19.575 11.5757 19.575 12.6674 19.2817V21.1667C12.6674 21.3877 12.7552 21.5997 12.9115 21.7559C13.0678 21.9122 13.2797 22 13.5007 22C13.7218 22 13.9337 21.9122 14.09 21.7559C14.2463 21.5997 14.3341 21.3877 14.3341 21.1667V18.6284C16.0542 17.7036 17.4353 16.2554 18.2774 14.4934C18.9322 14.4487 19.5529 14.1844 20.0389 13.7433C20.525 13.3022 20.848 12.7101 20.9559 12.0627C21.0637 11.4152 20.95 10.7503 20.6332 10.1755C20.3164 9.6007 19.8149 9.14955 19.2099 8.89502Z" fill="#795BDA"/>
</svg>
