<svg width="25" height="24" viewBox="0 0 25 24" fill="none" xmlns="http://www.w3.org/2000/svg">
<path d="M21.7641 2.73452C21.4653 2.43212 21.0936 2.21189 20.6848 2.0951C20.2761 1.97832 19.8441 1.96893 19.4307 2.06784L6.09703 4.87624C5.32915 4.98155 4.60593 5.29915 4.00881 5.79327C3.41169 6.2874 2.96438 6.93842 2.71726 7.67303C2.47013 8.40764 2.43302 9.19665 2.61008 9.95121C2.78715 10.7058 3.17137 11.3959 3.71947 11.9439L5.15117 13.3748C5.22866 13.4523 5.29011 13.5442 5.33201 13.6455C5.37391 13.7467 5.39543 13.8552 5.39534 13.9648V16.6049C5.39718 16.9761 5.48263 17.3421 5.64535 17.6757L5.63868 17.6816L5.66035 17.7032C5.90453 18.1942 6.30335 18.5912 6.79538 18.8333L6.81704 18.8549L6.82288 18.8483C7.15652 19.011 7.52254 19.0964 7.89374 19.0983H10.5338C10.7547 19.0981 10.9666 19.1856 11.123 19.3416L12.5539 20.7725C12.9376 21.1605 13.3944 21.4687 13.8979 21.6794C14.4013 21.8901 14.9415 21.9991 15.4873 22C15.9421 21.9994 16.3938 21.9251 16.8248 21.78C17.5527 21.541 18.1993 21.1033 18.6917 20.5164C19.1841 19.9295 19.5027 19.2166 19.6115 18.4582L22.4241 5.09541C22.5281 4.67844 22.522 4.24158 22.4063 3.82768C22.2906 3.41379 22.0693 3.03709 21.7641 2.73452ZM6.3312 12.1981L4.89866 10.7672C4.56509 10.4417 4.33129 10.0277 4.22472 9.57399C4.11814 9.12024 4.14321 8.6455 4.29698 8.20549C4.44606 7.75408 4.72166 7.35499 5.091 7.05568C5.46033 6.75637 5.90787 6.56944 6.38037 6.51712L19.5815 3.73788L7.06038 16.2607V13.9648C7.06165 13.6367 6.99785 13.3117 6.87269 13.0084C6.74753 12.7052 6.56348 12.4298 6.3312 12.1981ZM17.974 18.1732C17.91 18.6335 17.719 19.0669 17.4224 19.4246C17.1258 19.7824 16.7353 20.0504 16.2949 20.1986C15.8544 20.3468 15.3814 20.3692 14.9289 20.2635C14.4763 20.1577 14.0622 19.928 13.733 19.5999L12.2997 18.1666C12.0683 17.9339 11.7931 17.7495 11.49 17.6239C11.1869 17.4983 10.8619 17.4341 10.5338 17.4349H8.23791L20.7607 4.91624L17.974 18.1732Z" fill="white"/>
</svg>
