<svg width="40" height="41" viewBox="0 0 40 41" fill="none" xmlns="http://www.w3.org/2000/svg">
<path d="M38.8279 32.6987H24.2056C21.8829 32.6987 20 34.5816 20 36.9043M20 36.9043V37.3872M20 36.9043C20 34.5816 18.1172 32.6987 15.7945 32.6987H1.17207" stroke="#795BDA" stroke-width="2" stroke-miterlimit="10"/>
<path d="M20 13.4615C20 11.1389 18.1171 9.25598 15.7944 9.25598H3.17207C2.0675 9.25598 1.17207 10.1514 1.17207 11.256V35.3873C1.17207 36.4919 2.0675 37.3873 3.17207 37.3873H36.8279C37.9325 37.3873 38.8279 36.4919 38.8279 35.3873V11.256C38.8279 10.1514 37.9325 9.25598 36.8279 9.25598H34.1394" stroke="#795BDA" stroke-width="2" stroke-miterlimit="10"/>
<path d="M27.1682 28.0102H34.1394V6.56738C34.1394 5.46281 33.2439 4.56738 32.1394 4.56738H27.1682C23.2093 4.56738 20 7.77665 20 11.7356V36.9043V35.1784C20 31.2194 23.2093 28.0102 27.1682 28.0102Z" stroke="#795BDA" stroke-width="2" stroke-miterlimit="10"/>
<path d="M5.07703 15.76H16.093M5.07703 20.4486H16.093M5.07703 25.1372H16.093" stroke="#A498D9" stroke-miterlimit="10"/>
</svg>
