<svg width="16" height="16" viewBox="0 0 16 16" fill="none" xmlns="http://www.w3.org/2000/svg">
<g clip-path="url(#clip0_548_13661)">
<path d="M8.66667 -0.00268555H3.33333C1.49533 -0.00268555 0 1.49265 0 3.33065V11.9C0 12.4286 0.29 12.9126 0.756 13.1626C0.968 13.2766 1.20067 13.3326 1.43267 13.3326C1.71 13.3326 1.98667 13.252 2.22667 13.0926L4.86867 11.3306H8.66667C10.5047 11.3306 12 9.83531 12 7.99731V3.33065C12 1.49265 10.5047 -0.00268555 8.66667 -0.00268555ZM16 5.99731V14.5666C16 15.0953 15.71 15.5793 15.244 15.8293C15.032 15.9433 14.7993 15.9993 14.5673 16C14.29 16 14.0133 15.9193 13.774 15.76L11.1313 13.9973H7.33333C6.36667 13.9973 5.502 13.5766 4.89267 12.9173L5.272 12.664H8.66667C11.2393 12.664 13.3333 10.57 13.3333 7.99731V3.33065C13.3333 3.12531 13.3153 2.92531 13.29 2.72665C14.8307 3.01998 16 4.37265 16 5.99731Z" fill="#A498D9"/>
</g>
<defs>
<clipPath id="clip0_548_13661">
<rect width="16" height="16" fill="white"/>
</clipPath>
</defs>
</svg>
