<svg width="24" height="24" viewBox="0 0 24 24" fill="none" xmlns="http://www.w3.org/2000/svg">
<path d="M16.3333 5.33333H15.4158C15.0283 3.43417 13.345 2 11.3333 2H4.66667C2.36917 2 0.5 3.86917 0.5 6.16667V16.8783C0.5 17.54 0.8625 18.145 1.445 18.4567C1.71 18.5992 2.00083 18.6692 2.29083 18.6692C2.6375 18.6692 2.98333 18.5683 3.2825 18.3692L5.74083 16.73C6.31667 18.3425 7.85833 19.5 9.66667 19.5H14.4142L17.7175 21.7025C18.0175 21.9025 18.3625 22.0033 18.7092 22.0033C18.9992 22.0033 19.2892 21.9325 19.555 21.79C20.1383 21.4783 20.5 20.8733 20.5 20.2117V9.5C20.5 7.2025 18.6308 5.33333 16.3333 5.33333ZM2.35833 16.9825C2.3425 16.9925 2.29583 17.0225 2.23167 16.9883C2.16583 16.9533 2.16583 16.8975 2.16583 16.8792V6.16667C2.16583 4.78833 3.2875 3.66667 4.66583 3.66667H11.3325C12.7108 3.66667 13.8325 4.78833 13.8325 6.16667V12C13.8325 13.3783 12.7108 14.5 11.3325 14.5H6.3325C6.06 14.5 5.88167 14.6325 5.86167 14.6458L2.35833 16.9825ZM18.8333 20.2125C18.8333 20.23 18.8333 20.2867 18.7675 20.3217C18.7017 20.3558 18.6567 20.3258 18.6417 20.3158L15.1292 17.9733C14.9925 17.8825 14.8317 17.8333 14.6667 17.8333H9.66667C8.58 17.8333 7.65417 17.1367 7.31 16.1667H11.3333C13.6308 16.1667 15.5 14.2975 15.5 12V7H16.3333C17.7117 7 18.8333 8.12167 18.8333 9.5V20.2125Z" fill="#795BDA"/>
</svg>
