<svg width="24" height="24" viewBox="0 0 24 24" fill="none" xmlns="http://www.w3.org/2000/svg">
<path d="M8.99961 12C10.0676 12 11.1117 11.6832 11.9997 11.0899C12.8877 10.4965 13.5798 9.65316 13.9886 8.66644C14.3973 7.67972 14.5042 6.59396 14.2958 5.54647C14.0875 4.49897 13.5732 3.53678 12.818 2.78158C12.0628 2.02637 11.1006 1.51207 10.0531 1.30371C9.0056 1.09535 7.91984 1.20229 6.93312 1.611C5.9464 2.01972 5.10303 2.71185 4.50967 3.59987C3.91631 4.4879 3.59961 5.53193 3.59961 6.59995C3.60104 8.03168 4.17042 9.40436 5.18281 10.4167C6.1952 11.4291 7.56788 11.9985 8.99961 12ZM8.99961 2.99995C9.71162 2.99995 10.4076 3.21109 10.9997 3.60666C11.5917 4.00224 12.0531 4.56448 12.3256 5.22229C12.598 5.88011 12.6693 6.60395 12.5304 7.30228C12.3915 8.00061 12.0487 8.64207 11.5452 9.14554C11.0417 9.64901 10.4003 9.99187 9.70193 10.1308C9.0036 10.2697 8.27976 10.1984 7.62195 9.92592C6.96413 9.65344 6.40189 9.19202 6.00632 8.6C5.61075 8.00799 5.39961 7.31197 5.39961 6.59995C5.39961 5.64517 5.77889 4.7295 6.45402 4.05437C7.12915 3.37924 8.04483 2.99995 8.99961 2.99995Z" fill="#A498D9"/>
<path d="M8.99922 14.4C6.9313 14.4025 4.94881 15.1998 3.48657 16.617C2.02433 18.0342 1.20174 19.9557 1.19922 21.96C1.19922 22.1828 1.29053 22.3965 1.45306 22.554C1.61559 22.7115 1.83603 22.8 2.06589 22.8C2.29574 22.8 2.51618 22.7115 2.67871 22.554C2.84124 22.3965 2.93255 22.1828 2.93255 21.96C2.93255 20.4006 3.57172 18.905 4.70944 17.8022C5.84716 16.6995 7.39024 16.08 8.99922 16.08C10.6082 16.08 12.1513 16.6995 13.289 17.8022C14.4267 18.905 15.0659 20.4006 15.0659 21.96C15.0659 22.1828 15.1572 22.3965 15.3197 22.554C15.4823 22.7115 15.7027 22.8 15.9326 22.8C16.1624 22.8 16.3828 22.7115 16.5454 22.554C16.7079 22.3965 16.7992 22.1828 16.7992 21.96C16.7967 19.9557 15.9741 18.0342 14.5119 16.617C13.0496 15.1998 11.0671 14.4025 8.99922 14.4Z" fill="#A498D9"/>
<path d="M18.2985 10.1158C18.2969 10.1798 18.2975 10.2441 18.3007 10.3086H20.0986C20.1017 10.2441 20.1024 10.1798 20.1007 10.1158C20.1166 9.93442 20.1958 9.75515 20.3383 9.60735C20.5018 9.4379 20.7364 9.32413 20.9986 9.30182C21.2609 9.32413 21.4955 9.4379 21.6589 9.60735C21.8293 9.78398 21.9091 10.0055 21.8987 10.222L21.8977 10.2436V10.2653C21.8977 10.637 21.6048 11.2119 20.9857 11.9045C20.4079 12.5507 19.6999 13.1312 19.2152 13.4971C19.2163 13.4962 19.2156 13.4971 19.2124 13.4981C19.2093 13.4992 19.2048 13.5 19.1996 13.5C19.1944 13.5 19.19 13.4992 19.1868 13.4981C19.185 13.4975 19.184 13.497 19.1837 13.4968C18.6982 13.1295 17.9909 12.5494 17.4135 11.9037C16.7942 11.2113 16.5016 10.6369 16.5016 10.2653V10.2436L16.5005 10.222C16.4901 10.0055 16.5699 9.78398 16.7403 9.60735C16.9037 9.4379 17.1383 9.32413 17.4006 9.30182C17.6629 9.32413 17.8975 9.4379 18.0609 9.60735C18.2034 9.75516 18.2826 9.93442 18.2985 10.1158Z" stroke="#A498D9" stroke-width="1.8"/>
</svg>
