<svg width="24" height="24" viewBox="0 0 24 24" fill="none" xmlns="http://www.w3.org/2000/svg">
<path d="M15.3696 15.3079L20 20M11.3158 16.8C7.82768 16.8 5 13.9346 5 10.4C5 6.86538 7.82768 4 11.3158 4C14.8039 4 17.6316 6.86538 17.6316 10.4C17.6316 13.9346 14.8039 16.8 11.3158 16.8Z" stroke="#795BDA" stroke-width="2"/>
<path d="M19.4662 20.5268C19.7571 20.8216 20.232 20.8248 20.5268 20.5338C20.8216 20.2429 20.8248 19.768 20.5338 19.4732L19.4662 20.5268ZM11.3158 16.05C8.25122 16.05 5.75 13.5298 5.75 10.4H4.25C4.25 14.3394 7.40413 17.55 11.3158 17.55V16.05ZM16.8816 10.4C16.8816 13.5298 14.3804 16.05 11.3158 16.05V17.55C15.2275 17.55 18.3816 14.3394 18.3816 10.4H16.8816ZM11.3158 4.75C14.3804 4.75 16.8816 7.2702 16.8816 10.4H18.3816C18.3816 6.46056 15.2275 3.25 11.3158 3.25V4.75ZM11.3158 3.25C7.40413 3.25 4.25 6.46056 4.25 10.4H5.75C5.75 7.2702 8.25122 4.75 11.3158 4.75V3.25ZM14.8358 15.8347L19.4662 20.5268L20.5338 19.4732L15.9034 14.7811L14.8358 15.8347Z" fill="#795BDA"/>
</svg>
