<svg width="24" height="24" viewBox="0 0 24 24" fill="none" xmlns="http://www.w3.org/2000/svg">
<path d="M16.9535 15.3004C16.5169 15.3005 16.0862 15.4009 15.6947 15.5941C15.3032 15.7872 14.9613 16.0678 14.6956 16.4142L8.54817 12.9252C8.75473 12.3258 8.75473 11.6746 8.54817 11.0753L14.6956 7.58627C15.1247 8.14299 15.7445 8.52135 16.4358 8.64854C17.1271 8.77574 17.841 8.64277 18.4402 8.27524C19.0393 7.90771 19.4814 7.33157 19.6813 6.6577C19.8812 5.98383 19.8248 5.25983 19.523 4.62502C19.2212 3.99021 18.6953 3.48945 18.0465 3.21909C17.3977 2.94872 16.6718 2.92787 16.0085 3.16053C15.3452 3.3932 14.7914 3.86294 14.4537 4.47937C14.1159 5.0958 14.0181 5.81537 14.179 6.49961L7.9268 10.0481C7.53557 9.63192 7.02831 9.34288 6.47081 9.21849C5.91331 9.0941 5.3313 9.1401 4.80025 9.35051C4.26921 9.56092 3.81364 9.92604 3.49264 10.3985C3.17163 10.871 3 11.429 3 12.0002C3 12.5714 3.17163 13.1295 3.49264 13.6019C3.81364 14.0744 4.26921 14.4395 4.80025 14.65C5.3313 14.8604 5.91331 14.9064 6.47081 14.782C7.02831 14.6576 7.53557 14.3685 7.9268 13.9524L14.179 17.5009C14.0442 18.0769 14.092 18.6806 14.3158 19.2282C14.5396 19.7758 14.9282 20.2402 15.4279 20.557C15.9275 20.8738 16.5133 21.0272 17.104 20.996C17.6948 20.9649 18.2612 20.7506 18.7247 20.383C19.1882 20.0154 19.5258 19.5127 19.6907 18.9445C19.8556 18.3764 19.8396 17.771 19.6449 17.2124C19.4502 16.6538 19.0865 16.1696 18.6043 15.827C18.122 15.4844 17.5451 15.3003 16.9535 15.3004ZM16.9535 4.19985C17.2799 4.19985 17.5989 4.29662 17.8702 4.47794C18.1416 4.65925 18.3531 4.91696 18.478 5.21847C18.6029 5.51998 18.6355 5.85176 18.5719 6.17184C18.5082 6.49193 18.351 6.78594 18.1203 7.01671C17.8895 7.24748 17.5955 7.40464 17.2754 7.46831C16.9553 7.53197 16.6236 7.4993 16.322 7.37441C16.0205 7.24951 15.7628 7.03802 15.5815 6.76667C15.4002 6.49531 15.3034 6.17628 15.3034 5.84993C15.3039 5.41245 15.4779 4.99303 15.7872 4.68368C16.0966 4.37434 16.516 4.20033 16.9535 4.19985ZM5.85295 13.6503C5.52659 13.6503 5.20757 13.5535 4.93621 13.3722C4.66486 13.1909 4.45336 12.9332 4.32847 12.6317C4.20358 12.3302 4.17091 11.9984 4.23457 11.6783C4.29824 11.3582 4.4554 11.0642 4.68617 10.8334C4.91693 10.6027 5.21095 10.4455 5.53103 10.3819C5.85112 10.3182 6.1829 10.3509 6.48441 10.4758C6.78592 10.6006 7.04363 10.8121 7.22494 11.0835C7.40625 11.3548 7.50303 11.6739 7.50303 12.0002C7.50254 12.4377 7.32854 12.8571 7.0192 13.1665C6.70985 13.4758 6.29043 13.6498 5.85295 13.6503ZM16.9535 19.8006C16.6271 19.8006 16.3081 19.7038 16.0368 19.5225C15.7654 19.3412 15.5539 19.0835 15.429 18.782C15.3041 18.4805 15.2715 18.1487 15.3351 17.8286C15.3988 17.5085 15.5559 17.2145 15.7867 16.9838C16.0175 16.753 16.3115 16.5958 16.6316 16.5322C16.9517 16.4685 17.2834 16.5012 17.585 16.6261C17.8865 16.7509 18.1442 16.9624 18.3255 17.2338C18.5068 17.5052 18.6036 17.8242 18.6036 18.1505C18.6031 18.588 18.4291 19.0074 18.1197 19.3168C17.8104 19.6261 17.391 19.8001 16.9535 19.8006Z" fill="#795BDA"/>
</svg>
