<svg width="25" height="24" viewBox="0 0 25 24" fill="none" xmlns="http://www.w3.org/2000/svg">
<path d="M14.75 4.08333C14.75 2.9325 15.6825 2 16.8333 2C17.9842 2 18.9167 2.9325 18.9167 4.08333C18.9167 5.23417 17.9842 6.16667 16.8333 6.16667C15.6825 6.16667 14.75 5.23417 14.75 4.08333ZM20.4617 18.6508C20.1642 18.9925 19.7725 19.2417 19.3333 19.3783V21.1658C19.3333 21.6267 18.9608 21.9992 18.5 21.9992C18.0392 21.9992 17.6667 21.6267 17.6667 21.1658V19.4992H16V21.1658C16 21.6267 15.6275 21.9992 15.1667 21.9992C14.7058 21.9992 14.3333 21.6267 14.3333 21.1658V19.3783C13.895 19.2417 13.5033 18.9925 13.205 18.6508C12.7858 18.17 12.6017 17.5667 12.6867 16.9542L13.81 9.62417C13.9833 8.35833 15.1042 7 16.8333 7C18.5625 7 19.6833 8.35917 19.8583 9.6375L20.9783 16.9425C20.9783 16.9425 20.98 16.9508 20.98 16.955C21.065 17.5675 20.8808 18.17 20.4617 18.6508ZM14.4625 17.5558C14.6142 17.73 14.865 17.8333 15.135 17.8333H18.5333C18.8025 17.8333 19.0542 17.73 19.2058 17.5558C19.2742 17.4767 19.3517 17.3492 19.33 17.1867L18.21 9.8775C18.14 9.3675 17.6683 8.6675 16.8342 8.6675C16 8.6675 15.5283 9.3675 15.46 9.865L14.3367 17.1958C14.3158 17.3483 14.3933 17.4775 14.4625 17.5575V17.5558ZM4.33333 6.16667C5.48417 6.16667 6.41667 5.23417 6.41667 4.08333C6.41667 2.9325 5.48417 2 4.33333 2C3.1825 2 2.25 2.9325 2.25 4.08333C2.25 5.23417 3.1825 6.16667 4.33333 6.16667ZM7.66667 10.3333V14.5C7.66667 15.2383 7.34417 15.9033 6.83333 16.3617V21.1667C6.83333 21.6275 6.46083 22 6 22C5.53917 22 5.16667 21.6275 5.16667 21.1667V17H3.5V21.1667C3.5 21.6275 3.1275 22 2.66667 22C2.20583 22 1.83333 21.6275 1.83333 21.1667V16.3617C1.3225 15.9033 1 15.2392 1 14.5V10.3333C1 8.495 2.495 7 4.33333 7C6.17167 7 7.66667 8.495 7.66667 10.3333ZM5.16667 15.3333C5.62667 15.3333 6 14.96 6 14.5V10.3333C6 9.41417 5.2525 8.66667 4.33333 8.66667C3.41417 8.66667 2.66667 9.41417 2.66667 10.3333V14.5C2.66667 14.96 3.04 15.3333 3.5 15.3333H5.16667ZM10.1667 2C9.70583 2 9.33333 2.3725 9.33333 2.83333V21.1667C9.33333 21.6275 9.70583 22 10.1667 22C10.6275 22 11 21.6275 11 21.1667V2.83333C11 2.3725 10.6275 2 10.1667 2Z" fill="#795BDA"/>
</svg>
