<svg width="33" height="33" viewBox="0 0 33 33" fill="none" xmlns="http://www.w3.org/2000/svg">
<path d="M8.87405 6.37403L6.37406 8.87402" stroke="#795BDA" stroke-width="2" stroke-miterlimit="10" stroke-linecap="round" stroke-linejoin="round"/>
<path d="M7.62408 7.62408L1.9376 1.9376" stroke="#795BDA" stroke-width="2" stroke-miterlimit="10" stroke-linecap="round" stroke-linejoin="round"/>
<path d="M5.10179 2.52344C5.47687 2.14837 5.98557 1.93765 6.51601 1.93765H15.2512C15.7817 1.93765 16.2904 2.14837 16.6655 2.52344L28.527 14.3849C30.4796 16.3376 30.4796 19.5034 28.527 21.456L21.4559 28.527C19.5033 30.4797 16.3375 30.4796 14.3849 28.527L2.52338 16.6655C2.1483 16.2904 1.93759 15.7817 1.93759 15.2513V6.51607C1.93759 5.98563 2.1483 5.47693 2.52338 5.10185L5.10179 2.52344Z" stroke="#795BDA" stroke-width="2" stroke-miterlimit="10" stroke-linecap="round" stroke-linejoin="round"/>
<path d="M13.1467 13.1468V12.7705C13.1467 10.9988 14.5829 9.56259 16.3546 9.56259C18.1263 9.56259 19.5625 10.9988 19.5625 12.7705V19.5626H12.7704C10.9988 19.5626 9.56256 18.1264 9.56256 16.3547C9.56256 14.583 10.9988 13.1468 12.7704 13.1468H13.1467Z" stroke="#A498D9" stroke-width="1.5" stroke-miterlimit="10" stroke-linecap="round" stroke-linejoin="round"/>
</svg>
