<svg width="24" height="24" viewBox="0 0 24 24" fill="none" xmlns="http://www.w3.org/2000/svg">
<path d="M16 8.66796H8V7.83471C7.99975 6.91097 8.29426 6.01334 8.83721 5.28294C9.38017 4.55254 10.1408 4.0308 10.9995 3.79974C11.8581 3.56868 12.7662 3.64141 13.5809 4.00649C14.3956 4.37157 15.0706 5.0083 15.5 5.81658C15.551 5.91227 15.6196 5.99656 15.7019 6.06463C15.7842 6.13271 15.8785 6.18324 15.9795 6.21334C16.0806 6.24344 16.1863 6.25252 16.2907 6.24006C16.3951 6.22759 16.4961 6.19384 16.588 6.14071C16.6799 6.08759 16.7608 6.01613 16.8262 5.93043C16.8915 5.84473 16.94 5.74646 16.9689 5.64123C16.9978 5.536 17.0065 5.42587 16.9946 5.31714C16.9826 5.2084 16.9502 5.10318 16.8992 5.00749C16.2978 3.87619 15.3526 2.98512 14.212 2.47433C13.0715 1.96354 11.8003 1.862 10.5983 2.18568C9.3963 2.50935 8.33165 3.23988 7.5717 4.26244C6.81175 5.28499 6.39959 6.54159 6.4 7.83471V9.02126C5.68749 9.34515 5.08103 9.87828 4.6548 10.5555C4.22856 11.2326 4.00102 12.0245 4 12.8342V17.8337C4.00127 18.9383 4.42311 19.9972 5.17298 20.7783C5.92285 21.5593 6.93952 21.9987 8 22H16C17.0605 21.9987 18.0772 21.5593 18.827 20.7783C19.5769 19.9972 19.9987 18.9383 20 17.8337V12.8342C19.9987 11.7297 19.5769 10.6707 18.827 9.8897C18.0772 9.10866 17.0605 8.66929 16 8.66796ZM18.4 17.8337C18.4 18.4967 18.1471 19.1325 17.6971 19.6013C17.247 20.0701 16.6365 20.3335 16 20.3335H8C7.36348 20.3335 6.75303 20.0701 6.30294 19.6013C5.85286 19.1325 5.6 18.4967 5.6 17.8337V12.8342C5.6 12.1712 5.85286 11.5354 6.30294 11.0666C6.75303 10.5978 7.36348 10.3345 8 10.3345H16C16.6365 10.3345 17.247 10.5978 17.6971 11.0666C18.1471 11.5354 18.4 12.1712 18.4 12.8342V17.8337Z" fill="white"/>
<path d="M12 14C11.7348 14 11.4804 14.079 11.2929 14.2197C11.1054 14.3603 11 14.5511 11 14.75V16.25C11 16.4489 11.1054 16.6397 11.2929 16.7803C11.4804 16.921 11.7348 17 12 17C12.2652 17 12.5196 16.921 12.7071 16.7803C12.8946 16.6397 13 16.4489 13 16.25V14.75C13 14.5511 12.8946 14.3603 12.7071 14.2197C12.5196 14.079 12.2652 14 12 14Z" fill="white"/>
</svg>
