<svg width="34" height="15" viewBox="0 0 34 15" fill="none" xmlns="http://www.w3.org/2000/svg">
<path fill-rule="evenodd" clip-rule="evenodd" d="M4.67053 2.78263C5.2985 2.8356 5.92648 2.46479 6.31896 1.99465C6.7049 1.51128 6.96002 0.862357 6.8946 0.200195C6.33858 0.226682 5.65174 0.571006 5.25925 1.05438C4.89947 1.47155 4.59203 2.14695 4.67053 2.78263ZM12.1408 11.3113V0.988165H15.9675C17.9431 0.988165 19.3233 2.36546 19.3233 4.37843C19.3233 6.3914 17.9169 7.78194 15.9152 7.78194H13.7238V11.3113H12.1408ZM6.88802 2.90843C6.33478 2.8762 5.82998 3.07685 5.42224 3.23892C5.15984 3.34321 4.93765 3.43154 4.7686 3.43154C4.5789 3.43154 4.34753 3.33849 4.08775 3.23403C3.74736 3.09714 3.35819 2.94065 2.95009 2.94816C2.01467 2.9614 1.14466 3.49775 0.667141 4.35194C-0.314069 6.06032 0.412026 8.58977 1.36053 9.98031C1.82497 10.669 2.38099 11.4238 3.11363 11.3973C3.43594 11.385 3.6678 11.2854 3.90775 11.1824C4.18399 11.0637 4.47097 10.9404 4.91905 10.9404C5.35161 10.9404 5.62603 11.0605 5.88946 11.1757C6.13994 11.2853 6.38048 11.3905 6.73756 11.3841C7.49637 11.3709 7.97389 10.6954 8.43833 10.0068C8.93953 9.26769 9.15979 8.54636 9.19321 8.4369C9.19512 8.43065 9.19642 8.42638 9.19713 8.42423C9.19633 8.42342 9.19014 8.42055 9.17921 8.41549C9.01166 8.33785 7.73106 7.74439 7.71877 6.15302C7.70644 4.81729 8.73452 4.14053 8.89636 4.03399C8.90619 4.02752 8.91285 4.02314 8.91585 4.02086C8.26171 3.04086 7.24125 2.93491 6.88802 2.90843ZM22.2147 11.3907C23.209 11.3907 24.1313 10.8809 24.5499 10.073H24.5826V11.3113H26.0479V6.17289C26.0479 4.68303 24.8705 3.72289 23.0585 3.72289C21.3774 3.72289 20.1345 4.69627 20.0887 6.03384H21.5147C21.6325 5.39816 22.2147 4.981 23.0127 4.981C23.9808 4.981 24.5238 5.43789 24.5238 6.27884V6.84829L22.5483 6.96748C20.7101 7.08005 19.7158 7.84154 19.7158 9.16586C19.7158 10.5034 20.7428 11.3907 22.2147 11.3907ZM22.6397 10.1657C21.7959 10.1657 21.2595 9.75519 21.2595 9.12614C21.2595 8.47722 21.7763 8.09979 22.764 8.04019L24.5237 7.92763V8.51033C24.5237 9.47708 23.7125 10.1657 22.6397 10.1657ZM30.9081 11.7152C30.2736 13.5229 29.5475 14.1188 28.0037 14.1188C27.886 14.1188 27.4935 14.1056 27.4019 14.0791V12.8409C27.5 12.8541 27.7421 12.8673 27.8664 12.8673C28.5663 12.8673 28.9588 12.5694 29.2008 11.7946L29.3447 11.3378L26.6628 3.82222H28.3177L30.182 9.92073H30.2147L32.079 3.82222H33.6882L30.9081 11.7152ZM13.7237 2.33898H15.5487C16.9224 2.33898 17.7074 3.0806 17.7074 4.38506C17.7074 5.68951 16.9224 6.43776 15.5422 6.43776H13.7237V2.33898Z" fill="black"/>
</svg>
