<svg width="38" height="12" viewBox="0 0 38 12" fill="none" xmlns="http://www.w3.org/2000/svg">
<path d="M27.4986 0.493507C26.9074 0.258964 25.9698 0 24.8103 0C21.8504 0 19.7661 1.57837 19.7533 3.83496C19.7287 5.49987 21.2456 6.4246 22.3802 6.97973C23.5398 7.54699 23.934 7.91725 23.934 8.42288C23.9221 9.19944 22.9969 9.55741 22.134 9.55741C20.9373 9.55741 20.2962 9.37285 19.3218 8.94081L18.9271 8.7556L18.5077 11.3577C19.2106 11.678 20.5058 11.9622 21.8504 11.9746C24.9954 11.9746 27.0428 10.4207 27.0671 8.01591C27.0791 6.69635 26.2781 5.68524 24.5512 4.85901C23.5029 4.32863 22.8609 3.971 22.8609 3.42832C22.8732 2.93498 23.4039 2.42967 24.5873 2.42967C25.5617 2.40492 26.2776 2.63914 26.8199 2.87352L27.091 2.9966L27.4986 0.493507Z" fill="#3362AB"/>
<path d="M16.6333 11.8019H13.636L15.5107 0.210121H18.5078L16.6333 11.8019Z" fill="#3362AB"/>
<path fill-rule="evenodd" clip-rule="evenodd" d="M35.182 0.210121H32.8636C32.1486 0.210121 31.6055 0.419586 31.297 1.17189L26.845 11.8017H29.9899C29.9899 11.8017 30.5077 10.371 30.619 10.0629H34.4672C34.5532 10.4698 34.8248 11.8017 34.8248 11.8017H37.6L35.182 0.210121ZM31.4822 7.69532C31.7291 7.02939 32.6789 4.45204 32.6789 4.45204C32.6739 4.46197 32.7125 4.35488 32.7701 4.19521L32.7708 4.19326L32.7713 4.19198C32.8573 3.95347 32.985 3.59946 33.0732 3.34227L33.2827 4.34108C33.2827 4.34108 33.8503 7.11576 33.9735 7.69532H31.4822Z" fill="#3362AB"/>
<path d="M11.1326 0.210121L8.19731 8.11459L7.87655 6.51147L7.87626 6.51047L6.82824 1.18451C6.65565 0.444172 6.12527 0.234542 5.47163 0.210121H0.649332L0.599998 0.444335C1.77614 0.745097 2.82809 1.17849 3.74981 1.71737L6.42127 11.7896H9.59079L14.302 0.210121H11.1326Z" fill="#3362AB"/>
</svg>
