<svg width="16" height="16" viewBox="0 0 16 16" fill="none" xmlns="http://www.w3.org/2000/svg">
<path d="M6.82053 0.521131C7.45337 -0.17371 8.54661 -0.17371 9.17945 0.521131L9.99319 1.41466C10.313 1.76584 10.7726 1.95623 11.2471 1.93406L12.4544 1.87764C13.3931 1.83376 14.1662 2.60685 14.1224 3.54564L14.0659 4.75287C14.0437 5.22732 14.2341 5.68698 14.5853 6.00679L15.4788 6.82053C16.1737 7.45337 16.1737 8.54661 15.4788 9.17945L14.5853 9.99319C14.2341 10.313 14.0437 10.7726 14.0659 11.2471L14.1224 12.4544C14.1662 13.3931 13.3931 14.1662 12.4544 14.1224L11.2471 14.0659C10.7726 14.0437 10.313 14.2341 9.99319 14.5853L9.17945 15.4788C8.54661 16.1737 7.45337 16.1737 6.82053 15.4788L6.00679 14.5853C5.68698 14.2341 5.22732 14.0437 4.75287 14.0659L3.54563 14.1224C2.60685 14.1662 1.83376 13.3931 1.87764 12.4544L1.93406 11.2471C1.95623 10.7726 1.76584 10.313 1.41466 9.99319L0.521131 9.17945C-0.17371 8.54661 -0.17371 7.45337 0.521131 6.82053L1.41466 6.00679C1.76584 5.68698 1.95623 5.22732 1.93406 4.75287L1.87764 3.54563C1.83376 2.60685 2.60685 1.83376 3.54564 1.87764L4.75287 1.93406C5.22732 1.95623 5.68698 1.76584 6.00679 1.41466L6.82053 0.521131Z" fill="#A498D9"/>
<path d="M5.60645 8.00017L7.20171 9.59544L10.3922 6.40491" stroke="white" stroke-linecap="round" stroke-linejoin="round"/>
</svg>
