<svg width="58" height="56" viewBox="0 0 58 56" fill="none" xmlns="http://www.w3.org/2000/svg">
<rect width="58" height="56" rx="28" fill="#00D95F"/>
<path d="M15 42.0114L17.0106 34.5423C15.3891 31.6327 14.8739 28.2374 15.5596 24.9796C16.2453 21.7217 18.0858 18.8197 20.7435 16.8062C23.4011 14.7926 26.6976 13.8026 30.028 14.0177C33.3584 14.2328 36.4993 15.6386 38.8744 17.9772C41.2495 20.3158 42.6995 23.4303 42.9582 26.7492C43.2169 30.0681 42.2671 33.3687 40.283 36.0454C38.2989 38.7221 35.4136 40.5954 32.1565 41.3214C28.8995 42.0474 25.4892 41.5776 22.5515 39.998L15 42.0114ZM22.9156 37.203L23.3826 37.4794C25.5105 38.7374 27.9958 39.258 30.4513 38.96C32.9067 38.6621 35.1944 37.5623 36.9578 35.832C38.7212 34.1018 39.8612 31.8383 40.2003 29.3943C40.5393 26.9503 40.0583 24.4631 38.8323 22.3203C37.6062 20.1774 35.7038 18.4993 33.4218 17.5475C31.1397 16.5956 28.606 16.4235 26.2156 17.0579C23.8252 17.6923 21.7123 19.0976 20.2063 21.0548C18.7002 23.012 17.8855 25.4112 17.8892 27.8785C17.8872 29.9243 18.4544 31.9305 19.5277 33.6738L19.8206 34.1554L18.6966 38.3242L22.9156 37.203Z" fill="white"/>
<path fill-rule="evenodd" clip-rule="evenodd" d="M34.1811 30.1697C33.9073 29.9494 33.5868 29.7944 33.2438 29.7164C32.9009 29.6384 32.5447 29.6395 32.2022 29.7196C31.6877 29.9328 31.3553 30.7382 31.0228 31.1408C30.9527 31.2374 30.8497 31.3051 30.7331 31.3312C30.6165 31.3574 30.4944 31.3402 30.3896 31.2829C28.5059 30.5471 26.927 29.1976 25.9093 27.4537C25.8225 27.3448 25.7815 27.2067 25.7947 27.0682C25.808 26.9298 25.8746 26.8019 25.9806 26.7115C26.3514 26.3453 26.6236 25.8918 26.7721 25.3929C26.8051 24.8426 26.6787 24.2945 26.408 23.8139C26.1987 23.14 25.8005 22.54 25.2603 22.0848C24.9816 21.9598 24.6727 21.9178 24.3707 21.9641C24.0687 22.0103 23.7866 22.1427 23.5584 22.3453C23.1622 22.6863 22.8477 23.1115 22.6381 23.5898C22.4285 24.068 22.3292 24.5871 22.3473 25.1087C22.3485 25.4016 22.3858 25.6933 22.4581 25.9772C22.6419 26.6593 22.9246 27.311 23.2972 27.9116C23.566 28.3717 23.8593 28.8171 24.1758 29.2459C25.2045 30.6545 26.4975 31.8504 27.9832 32.7673C28.7287 33.2332 29.5255 33.6121 30.3579 33.8963C31.2225 34.2873 32.1772 34.4373 33.1204 34.3306C33.6579 34.2494 34.1671 34.0378 34.6032 33.7142C35.0394 33.3907 35.3892 32.9652 35.6217 32.4752C35.7584 32.1791 35.7999 31.8482 35.7405 31.5277C35.598 30.8724 34.7194 30.4855 34.1811 30.1697Z" fill="white"/>
</svg>
