<svg width="24" height="24" viewBox="0 0 24 24" fill="" xmlns="http://www.w3.org/2000/svg">
<path d="M12.0823 12.8334C11.8351 12.8334 11.5934 12.76 11.3879 12.6227C11.1823 12.4853 11.0221 12.2901 10.9275 12.0617C10.8329 11.8333 10.8081 11.582 10.8564 11.3395C10.9046 11.097 11.0236 10.8743 11.1985 10.6995C11.3733 10.5247 11.596 10.4056 11.8385 10.3574C12.081 10.3091 12.3323 10.3339 12.5607 10.4285C12.7891 10.5231 12.9843 10.6833 13.1217 10.8889C13.259 11.0945 13.3323 11.3361 13.3323 11.5834C13.3323 11.9149 13.2007 12.2328 12.9662 12.4672C12.7318 12.7017 12.4139 12.8334 12.0823 12.8334ZM19.9365 17.12C20.0405 17.7185 20.0124 18.3325 19.8541 18.919C19.6958 19.5055 19.4112 20.0503 19.0202 20.5152C18.6292 20.9801 18.1413 21.3539 17.5906 21.6104C17.0399 21.8669 16.4398 21.9999 15.8323 22H12.499C12.278 22 12.066 21.9122 11.9098 21.7559C11.7535 21.5997 11.6657 21.3877 11.6657 21.1667V19.2809C11.1217 19.4243 10.5616 19.498 9.99901 19.5C9.43609 19.4971 8.87589 19.4215 8.33235 19.275V21.1667C8.33235 21.3877 8.24455 21.5997 8.08827 21.7559C7.93199 21.9122 7.72003 22 7.49902 22H4.16568C3.55821 21.9999 2.95811 21.8669 2.40743 21.6104C1.85676 21.3539 1.36883 20.9801 0.977829 20.5152C0.586828 20.0503 0.302214 19.5055 0.143929 18.919C-0.0143563 18.3325 -0.0424843 17.7185 0.0615156 17.12L0.311516 15.67C0.394647 15.1878 0.620344 14.7415 0.959501 14.3887C1.29866 14.0359 1.73572 13.7928 2.21434 13.6908C2.69295 13.5887 3.19116 13.6324 3.64472 13.8161C4.09828 13.9999 4.4864 14.3153 4.75902 14.7217C5.81235 16.27 7.83985 17.8334 9.99901 17.8334C12.6073 17.8334 15.1773 15.5175 15.9407 13.3534C16.0019 13.1907 16.1111 13.0504 16.2538 12.9512C16.3966 12.8519 16.566 12.7984 16.7398 12.7975L17.0998 12.8034C17.2612 12.8053 17.4213 12.7752 17.571 12.7148C17.7206 12.6543 17.8567 12.5647 17.9714 12.4512C18.086 12.3377 18.177 12.2025 18.239 12.0535C18.301 11.9045 18.3327 11.7447 18.3323 11.5834C18.3321 11.2911 18.2294 11.0081 18.0421 10.7837C17.8548 10.5593 17.5949 10.4076 17.3074 10.355C17.13 10.3229 16.9679 10.2341 16.8453 10.102C16.7227 9.96997 16.6463 9.80173 16.6273 9.62252C16.4561 7.98526 15.6834 6.4698 14.4589 5.36954C13.2344 4.26928 11.6452 3.6625 9.99901 3.66669C5.35152 3.66669 4.07568 6.69002 3.05068 9.12002C2.86402 9.55919 2.68818 9.97836 2.49902 10.3559C4.17467 10.2673 5.80859 9.80086 7.27853 8.99157C8.74847 8.18228 10.0164 7.05105 10.9873 5.68252C11.0509 5.59344 11.1314 5.51776 11.2243 5.45979C11.3171 5.40182 11.4204 5.36271 11.5284 5.34468C11.6363 5.32665 11.7468 5.33006 11.8534 5.35471C11.96 5.37936 12.0608 5.42478 12.1498 5.48836C12.2389 5.55194 12.3146 5.63244 12.3726 5.72527C12.4305 5.81811 12.4697 5.92145 12.4877 6.02939C12.5057 6.13734 12.5023 6.24778 12.4777 6.35441C12.453 6.46105 12.4076 6.56178 12.344 6.65086C11.2624 8.18432 9.85121 9.45625 8.21402 10.3734C8.46358 10.4346 8.68819 10.5713 8.85727 10.7648C9.02636 10.9584 9.13169 11.1993 9.15893 11.4548C9.18617 11.7103 9.13399 11.968 9.0095 12.1928C8.88502 12.4177 8.69427 12.5986 8.46323 12.7111C8.23219 12.8236 7.97209 12.8622 7.71835 12.8216C7.46461 12.781 7.22955 12.6631 7.04519 12.4841C6.86083 12.3051 6.73612 12.0736 6.68804 11.8212C6.63996 11.5687 6.67086 11.3076 6.77652 11.0734C4.86053 11.8492 2.78885 12.1632 0.729016 11.99C0.557325 11.967 0.397073 11.8911 0.270546 11.7728C0.14402 11.6544 0.0575075 11.4996 0.0230418 11.3299C-0.011424 11.1601 0.00786994 10.9838 0.0782402 10.8255C0.14861 10.6673 0.266559 10.5348 0.415682 10.4467C0.919459 9.87511 1.29433 9.20182 1.51485 8.47252C2.60235 5.89502 4.24902 2.00002 9.99901 2.00002C11.961 1.99538 13.8613 2.68506 15.3636 3.94699C16.8659 5.20892 17.8733 6.9617 18.2073 8.89502C18.7377 9.11672 19.1906 9.49017 19.5094 9.96847C19.8282 10.4468 19.9985 11.0086 19.999 11.5834C19.9976 12.2758 19.7447 12.9442 19.2873 13.4642C19.2932 13.4859 19.3082 13.5034 19.3123 13.5267L19.9365 17.12ZM6.66568 18.6167C5.34756 17.9103 4.22058 16.8946 3.38152 15.6567C3.31011 15.5488 3.21323 15.4601 3.09944 15.3985C2.98564 15.3368 2.85842 15.3042 2.72902 15.3034H2.71485C2.5324 15.3072 2.35695 15.3743 2.21848 15.4931C2.08001 15.612 1.98712 15.7753 1.95568 15.955L1.70568 17.4042C1.64313 17.7632 1.65981 18.1315 1.75455 18.4834C1.84929 18.8352 2.0198 19.1621 2.25415 19.4411C2.48849 19.7202 2.78101 19.9446 3.1112 20.0987C3.4414 20.2529 3.80129 20.3329 4.16568 20.3334H6.66568V18.6167ZM18.2948 17.4042L17.7715 14.3934C17.6131 14.4311 17.4516 14.4551 17.289 14.465C16.4483 16.2391 15.0617 17.6975 13.3323 18.6267V20.3334H15.8323C16.1969 20.3333 16.557 20.2535 16.8874 20.0996C17.2178 19.9457 17.5106 19.7214 17.7452 19.4424C17.9798 19.1634 18.1506 18.8365 18.2455 18.4845C18.3405 18.1326 18.3573 17.7633 18.2948 17.4042Z" fill=""/>
</svg>
