<svg width="48" height="48" viewBox="0 0 48 48" fill="none" xmlns="http://www.w3.org/2000/svg">
<rect width="48" height="48" rx="24" fill="#F1EDFF"/>
<path d="M20.6549 24.0614C20.6549 22.2093 22.1556 20.7074 24.0072 20.7074C25.8589 20.7074 27.3603 22.2093 27.3603 24.0614C27.3603 25.9136 25.8589 27.4155 24.0072 27.4155C22.1556 27.4155 20.6549 25.9136 20.6549 24.0614ZM18.8423 24.0614C18.8423 26.9149 21.1546 29.2279 24.0072 29.2279C26.8598 29.2279 29.1722 26.9149 29.1722 24.0614C29.1722 21.208 26.8598 18.895 24.0072 18.895C21.1546 18.895 18.8423 21.208 18.8423 24.0614ZM28.1696 18.6902C28.1695 18.929 28.2402 19.1624 28.3728 19.361C28.5053 19.5596 28.6938 19.7145 28.9143 19.8059C29.1348 19.8974 29.3775 19.9214 29.6116 19.8749C29.8458 19.8284 30.0609 19.7135 30.2298 19.5447C30.3987 19.3759 30.5137 19.1609 30.5604 18.9267C30.607 18.6925 30.5832 18.4497 30.492 18.2291C30.4007 18.0084 30.2461 17.8198 30.0476 17.687C29.8492 17.5543 29.6158 17.4834 29.3771 17.4833H29.3766C29.0566 17.4834 28.7498 17.6106 28.5235 17.8369C28.2972 18.0632 28.1699 18.3701 28.1696 18.6902ZM19.9436 32.2512C18.9629 32.2066 18.4299 32.0432 18.0757 31.9051C17.606 31.7222 17.271 31.5044 16.9187 31.1525C16.5664 30.8006 16.3483 30.4658 16.1663 29.996C16.0282 29.6418 15.8649 29.1085 15.8203 28.1276C15.7715 27.067 15.7618 26.7484 15.7618 24.0615C15.7618 21.3746 15.7723 21.0569 15.8203 19.9955C15.8649 19.0145 16.0295 18.4823 16.1663 18.127C16.3491 17.6573 16.5669 17.3221 16.9187 16.9697C17.2705 16.6173 17.6052 16.3992 18.0757 16.2171C18.4297 16.079 18.9629 15.9156 19.9436 15.871C21.0038 15.8222 21.3223 15.8125 24.0072 15.8125C26.6921 15.8125 27.0109 15.8231 28.0721 15.871C29.0527 15.9157 29.5849 16.0803 29.94 16.2171C30.4096 16.3992 30.7447 16.6178 31.097 16.9697C31.4492 17.3216 31.6665 17.6573 31.8493 18.127C31.9874 18.4812 32.1508 19.0145 32.1954 19.9955C32.2441 21.0569 32.2539 21.3746 32.2539 24.0615C32.2539 26.7484 32.2441 27.0661 32.1954 28.1276C32.1507 29.1085 31.9865 29.6417 31.8493 29.996C31.6665 30.4658 31.4488 30.8009 31.097 31.1525C30.7452 31.5041 30.4096 31.7222 29.94 31.9051C29.5859 32.0432 29.0527 32.2066 28.0721 32.2512C27.0118 32.3 26.6933 32.3097 24.0072 32.3097C21.3211 32.3097 21.0035 32.3 19.9436 32.2512ZM19.8603 14.0609C18.7895 14.1097 18.0578 14.2795 17.4188 14.5283C16.757 14.7851 16.1968 15.1297 15.637 15.6888C15.0772 16.2479 14.7336 16.8092 14.4768 17.4711C14.2281 18.1107 14.0583 18.8422 14.0096 19.9133C13.96 20.9861 13.9487 21.3291 13.9487 24.0614C13.9487 26.7938 13.96 27.1368 14.0096 28.2096C14.0583 29.2808 14.2281 30.0122 14.4768 30.6518C14.7336 31.3133 15.0772 31.8752 15.637 32.4341C16.1967 32.993 16.757 33.3371 17.4188 33.5946C18.059 33.8433 18.7895 34.0132 19.8603 34.062C20.9333 34.1107 21.2756 34.1229 24.0072 34.1229C26.7388 34.1229 27.0817 34.1115 28.1542 34.062C29.225 34.0132 29.9562 33.8433 30.5956 33.5946C31.257 33.3371 31.8176 32.9932 32.3775 32.4341C32.9373 31.875 33.2801 31.3133 33.5376 30.6518C33.7863 30.0122 33.9569 29.2807 34.0048 28.2096C34.0536 27.136 34.065 26.7938 34.065 24.0614C34.065 21.3291 34.0536 20.9861 34.0048 19.9133C33.9561 18.8421 33.7863 18.1103 33.5376 17.4711C33.2801 16.8096 32.9364 16.2488 32.3775 15.6888C31.8185 15.1288 31.257 14.7851 30.5964 14.5283C29.9562 14.2795 29.2249 14.1089 28.155 14.0609C27.0825 14.0122 26.7396 14 24.008 14C21.2764 14 20.9333 14.0113 19.8603 14.0609Z" fill="#2F264D"/>
</svg>
