<svg width="48" height="48" viewBox="0 0 48 48" fill="none" xmlns="http://www.w3.org/2000/svg">
<rect width="48" height="48" rx="24" fill="#F1EDFF"/>
<path d="M14.2262 23.4035C14.2262 23.4035 23.0717 19.6717 26.1395 18.3577C27.3155 17.8321 31.3036 16.1501 31.3036 16.1501C31.3036 16.1501 33.1443 15.4143 32.9909 17.2013C32.9398 17.9372 32.5307 20.5127 32.1217 23.2984C31.5081 27.2405 30.8434 31.5505 30.8434 31.5505C30.8434 31.5505 30.7412 32.7595 29.872 32.9697C29.0028 33.18 27.5711 32.2339 27.3155 32.0236C27.1109 31.866 23.4807 29.5007 22.1513 28.3443C21.7934 28.029 21.3844 27.3983 22.2024 26.6624C24.0431 24.9278 26.2417 22.7728 27.5711 21.4063C28.1847 20.7755 28.7982 19.3038 26.2417 21.0908C22.6115 23.6664 19.0324 26.0842 19.0324 26.0842C19.0324 26.0842 18.2143 26.6098 16.6804 26.1367C15.1465 25.6637 13.3569 25.033 13.3569 25.033C13.3569 25.033 12.1298 24.2445 14.2262 23.4035Z" fill="#2F264D"/>
</svg>
