<svg width="40" height="41" viewBox="0 0 40 41" fill="none" xmlns="http://www.w3.org/2000/svg">
<g clip-path="url(#clip0_757_2281)">
<path d="M14.1128 25.6843H30.5901M21.1744 30.3914H14.1128M10.5818 35.0984V2.14917M23.5283 30.3914H30.5901" stroke="#A498D9" stroke-miterlimit="10"/>
<path d="M14.1126 9.20968H15.2896C16.5896 9.20968 17.6435 10.2633 17.6435 11.5632C17.6435 14.1627 19.7512 16.2702 22.3513 16.2702C24.9513 16.2702 27.0591 14.1627 27.0591 11.5632C27.0591 10.2633 28.113 9.20968 29.413 9.20968H30.59M22.3513 5.67944V22.154" stroke="#795BDA" stroke-width="2" stroke-miterlimit="10"/>
<path d="M35.2978 39.8054H8.2279C6.9279 39.8054 5.87399 38.7517 5.87399 37.4519M5.87399 37.4519C5.87399 36.1521 6.9279 35.0984 8.2279 35.0984H32.1209C33.2254 35.0984 34.1209 34.203 34.1209 33.0984V4.14917C34.1209 3.0446 33.2254 2.14917 32.1209 2.14917H9.40485C7.45485 2.14917 5.87399 3.72964 5.87399 5.67948V37.4519ZM31.767 39.8054V35.0984" stroke="#795BDA" stroke-width="2" stroke-miterlimit="10"/>
</g>
<defs>
<clipPath id="clip0_757_2281">
<rect width="40" height="40" fill="white" transform="translate(0 0.977295)"/>
</clipPath>
</defs>
</svg>
