<svg width="24" height="24" viewBox="0 0 24 24" fill="none" xmlns="http://www.w3.org/2000/svg">
<path d="M8.66667 12H7C6.08083 12 5.33333 12.7475 5.33333 13.6667V15.3333C5.33333 16.2525 6.08083 17 7 17H8.66667C9.58583 17 10.3333 16.2525 10.3333 15.3333V13.6667C10.3333 12.7475 9.58583 12 8.66667 12ZM7 15.3333V13.6667H8.66667V15.3333H7ZM17.8333 3.66667H17V2.83333C17 2.61232 16.9122 2.40036 16.7559 2.24408C16.5996 2.0878 16.3877 2 16.1667 2C15.9457 2 15.7337 2.0878 15.5774 2.24408C15.4211 2.40036 15.3333 2.61232 15.3333 2.83333V3.66667H8.66667V2.83333C8.66667 2.61232 8.57887 2.40036 8.42259 2.24408C8.26631 2.0878 8.05435 2 7.83333 2C7.61232 2 7.40036 2.0878 7.24408 2.24408C7.0878 2.40036 7 2.61232 7 2.83333V3.66667H6.16667C3.86917 3.66667 2 5.53583 2 7.83333V17.8333C2 20.1308 3.86917 22 6.16667 22H17.8333C20.1308 22 22 20.1308 22 17.8333V7.83333C22 5.53583 20.1308 3.66667 17.8333 3.66667ZM6.16667 5.33333H17.8333C19.2117 5.33333 20.3333 6.455 20.3333 7.83333V8.66667H3.66667V7.83333C3.66667 6.455 4.78833 5.33333 6.16667 5.33333ZM17.8333 20.3333H6.16667C4.78833 20.3333 3.66667 19.2117 3.66667 17.8333V10.3333H20.3333V17.8333C20.3333 19.2117 19.2117 20.3333 17.8333 20.3333Z" fill="#A498D9"/>
</svg>
