<svg width="40" height="41" viewBox="0 0 40 41" fill="none" xmlns="http://www.w3.org/2000/svg">
<path d="M36.6562 4.97729H3C1.89543 4.97729 1 5.87273 1 6.9773V34.6179C1 35.7225 1.89543 36.6179 3 36.6179H36.6562C37.7608 36.6179 38.6562 35.7225 38.6562 34.6179V6.97729C38.6562 5.87273 37.7608 4.97729 36.6562 4.97729Z" stroke="#795BDA" stroke-width="2" stroke-miterlimit="10"/>
<path d="M5.6875 29.5867V12.0867C6.98195 12.0867 8.03125 11.0374 8.03125 9.74292H31.625C31.625 11.0374 32.6743 12.0867 33.9688 12.0867V29.5867C32.6743 29.5867 31.625 30.636 31.625 31.9304H8.03125C8.03125 30.636 6.98195 29.5867 5.6875 29.5867Z" stroke="#A498D9" stroke-miterlimit="10"/>
<path d="M19.8281 16.3835H30.4605" stroke="#795BDA" stroke-width="2" stroke-miterlimit="10"/>
<path d="M19.8281 21.071H30.4605" stroke="#795BDA" stroke-width="2" stroke-miterlimit="10"/>
<path d="M19.8281 25.7585H30.4605" stroke="#795BDA" stroke-width="2" stroke-miterlimit="10"/>
<path d="M13.6562 20.7976C15.4469 20.7976 16.8984 19.346 16.8984 17.5554C16.8984 15.7648 15.4469 14.3132 13.6562 14.3132C11.8656 14.3132 10.4141 15.7648 10.4141 17.5554C10.4141 19.346 11.8656 20.7976 13.6562 20.7976Z" stroke="#795BDA" stroke-width="2" stroke-miterlimit="10"/>
<path d="M16 19.7943V25.7585H11.3125V19.7943" stroke="#795BDA" stroke-width="2" stroke-miterlimit="10"/>
</svg>
