<svg width="33" height="32" viewBox="0 0 33 32" fill="none" xmlns="http://www.w3.org/2000/svg">
<rect x="0.75" width="32" height="32" rx="16" fill="#EA4335"/>
<path fill-rule="evenodd" clip-rule="evenodd" d="M6.75 16C6.75 21.514 11.236 26 16.75 26C18.687 26 20.695 25.372 22.405 24.232C22.864 23.926 22.988 23.306 22.682 22.846C22.375 22.387 21.755 22.262 21.295 22.568C19.911 23.491 18.296 24 16.75 24C12.339 24 8.75 20.411 8.75 16C8.75 11.589 12.339 8 16.75 8C21.236 8 24.75 11.514 24.75 16C24.75 16.781 24.584 18.6 23.05 18.6C22.097 18.6 21.35 17.854 21.35 16.9V16.0153C21.35 16.0103 21.35 16.0054 21.35 16.0004C21.35 15.9954 21.35 15.9904 21.35 15.9855V12.6C21.35 12.047 20.902 11.6 20.35 11.6C19.9206 11.6 19.5542 11.8705 19.4126 12.2509C18.6607 11.7155 17.7416 11.4004 16.75 11.4004C14.213 11.4004 12.15 13.4634 12.15 16.0004C12.15 18.5364 14.213 20.5994 16.75 20.5994C18.0734 20.5994 19.2679 20.038 20.1078 19.141C20.7844 20.0272 21.8516 20.6 23.05 20.6C25.297 20.6 26.75 18.794 26.75 16C26.75 10.393 22.357 6 16.75 6C11.236 6 6.75 10.486 6.75 16ZM19.35 15.9889V16.0119C19.344 17.4644 18.2042 18.5994 16.75 18.5994C15.292 18.5994 14.15 17.4584 14.15 16.0004C14.15 14.5424 15.292 13.4004 16.75 13.4004C18.2042 13.4004 19.344 14.5364 19.35 15.9889Z" fill="white"/>
</svg>
