<svg width="24" height="24" viewBox="0 0 24 24" fill="none" xmlns="http://www.w3.org/2000/svg">
<path d="M10.5 22C16.0228 22 20.5 17.5228 20.5 12C20.5 6.47715 16.0228 2 10.5 2C4.97715 2 0.5 6.47715 0.5 12C0.5 17.5228 4.97715 22 10.5 22Z" fill="#F0F0F0"/>
<path d="M2.56645 5.91179C1.78094 6.93378 1.18863 8.11171 0.84375 9.39136H6.04602L2.56645 5.91179ZM20.1548 9.39136C19.8099 8.11175 19.2175 6.93382 18.4321 5.91183L14.9526 9.39136H20.1548ZM0.84375 14.6087C1.18867 15.8883 1.78098 17.0663 2.56645 18.0882L6.0459 14.6087H0.84375ZM16.5875 4.06722C15.5655 3.28171 14.3876 2.6894 13.1079 2.34448V7.54671L16.5875 4.06722ZM4.41105 19.9328C5.43305 20.7183 6.61098 21.3106 7.89059 21.6555V16.4533L4.41105 19.9328ZM7.89055 2.34448C6.61094 2.6894 5.43301 3.28171 4.41105 4.06718L7.89055 7.54667V2.34448ZM13.108 21.6555C14.3876 21.3106 15.5655 20.7183 16.5875 19.9328L13.108 16.4533V21.6555ZM14.9526 14.6087L18.4321 18.0883C19.2175 17.0663 19.8099 15.8883 20.1548 14.6087H14.9526Z" fill="#0052B4"/>
<path d="M20.4154 10.6957H11.8044V2.08465C11.3719 2.0283 10.9362 2.00002 10.5 2C10.0579 2 9.62262 2.02906 9.19566 2.08465V10.6956H0.584648C0.528297 11.1281 0.500022 11.5638 0.5 12C0.5 12.4421 0.529063 12.8774 0.584648 13.3043H9.19563V21.9154C10.0615 22.0282 10.9384 22.0282 11.8043 21.9154V13.3044H20.4154C20.4717 12.8719 20.5 12.4362 20.5 12C20.5 11.5579 20.4709 11.1226 20.4154 10.6957Z" fill="#D80027"/>
<path d="M13.1074 14.6086L17.5698 19.071C17.7749 18.8656 17.971 18.6514 18.1576 18.429L14.3372 14.6086H13.1074V14.6086ZM7.89 14.6086H7.88992L3.42762 19.0709C3.633 19.2761 3.8472 19.4722 4.06961 19.6588L7.89 15.8383V14.6086ZM7.89 9.39126V9.39118L3.42766 4.9288C3.22252 5.13418 3.02639 5.34838 2.83984 5.57079L6.66027 9.39122H7.89V9.39126ZM13.1074 9.39126L17.5698 4.92884C17.3644 4.7237 17.1502 4.52759 16.9278 4.34106L13.1074 8.16149V9.39126Z" fill="#D80027"/>
</svg>
