<svg width="24" height="24" viewBox="0 0 24 24" fill="none" xmlns="http://www.w3.org/2000/svg">
<path d="M14.5 13.2485C14.5 11.6402 13.1917 10.3319 11.5833 10.3319H4.91667C3.30833 10.3319 2 11.6402 2 13.2485C2 14.4094 2.6825 15.4144 3.66667 15.8835V17.8319H2.83333C2.37333 17.8319 2 18.2044 2 18.6652C2 19.126 2.37333 19.4985 2.83333 19.4985H3.66667V21.1652C3.66667 21.626 4.04 21.9985 4.5 21.9985C4.96 21.9985 5.33333 21.626 5.33333 21.1652V19.4985H11.1667V21.1652C11.1667 21.626 11.54 21.9985 12 21.9985C12.46 21.9985 12.8333 21.626 12.8333 21.1652V19.4985H13.6667C14.1267 19.4985 14.5 19.126 14.5 18.6652C14.5 18.2044 14.1267 17.8319 13.6667 17.8319H12.8333V15.8835C13.8175 15.4144 14.5 14.4094 14.5 13.2485ZM4.91667 11.9985H11.5833C12.2725 11.9985 12.8333 12.5594 12.8333 13.2485C12.8333 13.9377 12.2725 14.4985 11.5833 14.4985H4.91667C4.2275 14.4985 3.66667 13.9377 3.66667 13.2485C3.66667 12.5594 4.2275 11.9985 4.91667 11.9985ZM5.33333 17.8319V16.1652H11.1667V17.8319H5.33333ZM21.62 10.466C21.9933 11.2019 22.0883 11.9727 21.9167 12.7402C21.5483 14.3944 20.0133 15.4735 18.2792 15.3152C18.1167 15.2952 18.0125 15.331 17.9358 15.4002C17.8883 15.4419 17.8325 15.5169 17.8325 15.6327V21.166C17.8325 21.6269 17.4592 21.9994 16.9992 21.9994C16.5392 21.9994 16.1658 21.6269 16.1658 21.166V15.6327C16.1658 15.071 16.405 14.5344 16.8208 14.1602C17.2492 13.7752 17.8267 13.5902 18.4067 13.6527C19.3292 13.7335 20.1067 13.2027 20.2892 12.3794C20.375 11.9927 20.3292 11.6077 20.1558 11.2669C20.0058 10.9777 19.6925 10.3744 20.1517 9.40854C20.2717 9.15688 20.3317 8.90688 20.3317 8.66604C20.3317 8.12771 20.0667 7.62188 19.6217 7.31188C19.0042 6.87937 18.6467 6.15354 18.665 5.36938C18.67 5.14354 18.6258 4.91271 18.5333 4.68438C18.3458 4.22021 17.9392 3.85521 17.4725 3.72938C17.1575 3.64437 16.84 3.64437 16.5242 3.72938C16.0575 3.85438 15.6517 4.22021 15.4642 4.68438C15.3717 4.91271 15.3267 5.14354 15.3325 5.36938C15.3508 6.15354 14.9933 6.87938 14.3758 7.31104C13.9308 7.62188 13.665 8.12771 13.665 8.66604C13.665 9.12688 13.2917 9.49938 12.8317 9.49938C12.3717 9.49938 11.9983 9.12688 11.9983 8.66604C11.9983 7.58354 12.53 6.56604 13.4217 5.94438C13.6417 5.79021 13.6692 5.54271 13.6667 5.40771C13.6558 4.95354 13.7408 4.49938 13.9192 4.05854C14.3042 3.10521 15.1175 2.38104 16.0933 2.11938C16.6908 1.96021 17.3075 1.96021 17.9033 2.11938C18.88 2.38104 19.6925 3.10604 20.0783 4.05854C20.2567 4.49938 20.3417 4.95354 20.3308 5.40771C20.3283 5.54188 20.3558 5.79021 20.5758 5.94521C21.4667 6.56604 21.9983 7.58354 21.9983 8.66604C21.9983 9.15688 21.8833 9.64688 21.6567 10.1235C21.57 10.3052 21.5767 10.3794 21.5767 10.3794C21.5792 10.3927 21.6033 10.4369 21.6183 10.4669L21.62 10.466Z" fill="#A498D9"/>
</svg>
