<svg width="24" height="24" viewBox="0 0 24 24" fill="none" xmlns="http://www.w3.org/2000/svg">
<path d="M21 12.3334L21.6342 12.7338L21.921 12.2795L21.5831 11.8617L21 12.3334ZM3 12.3334L2.41687 11.8617L2.07897 12.2795L2.36584 12.7338L3 12.3334ZM20.3658 11.9329C19.4652 13.3593 18.2074 14.7854 16.7451 15.8483C15.2814 16.9124 13.655 17.5834 12 17.5834V19.0834C14.0633 19.0834 15.9926 18.2499 17.6271 17.0616C19.2632 15.8723 20.6462 14.2985 21.6342 12.7338L20.3658 11.9329ZM12 17.5834C10.345 17.5834 8.71856 16.9124 7.25484 15.8483C5.7926 14.7854 4.53477 13.3593 3.63416 11.933L2.36584 12.7338C3.35379 14.2985 4.73681 15.8723 6.37285 17.0616C8.00742 18.2499 9.93667 19.0834 12 19.0834V17.5834ZM3.58313 12.805C5.92563 9.90895 8.40339 7.08337 12 7.08337V5.58337C7.57987 5.58337 4.67147 9.0743 2.41687 11.8617L3.58313 12.805ZM12 7.08337C15.5966 7.08337 18.0744 9.9089 20.4169 12.805L21.5831 11.8617C19.3286 9.07424 16.4202 5.58337 12 5.58337V7.08337Z" fill="#795BDA"/>
<path d="M12 14.3335C13.1046 14.3335 14 13.4381 14 12.3335C14 11.2289 13.1046 10.3335 12 10.3335C10.8954 10.3335 10 11.2289 10 12.3335C10 13.4381 10.8954 14.3335 12 14.3335Z" stroke="#795BDA" stroke-width="1.5" stroke-linecap="round" stroke-linejoin="round"/>
</svg>
