<svg width="24" height="24" viewBox="0 0 24 24" fill="none" xmlns="http://www.w3.org/2000/svg">
<path d="M8.25 12.8333C7.50832 12.8333 6.7833 12.6134 6.16661 12.2013C5.54993 11.7893 5.06928 11.2036 4.78545 10.5184C4.50162 9.83317 4.42736 9.07917 4.57206 8.35175C4.71675 7.62432 5.0739 6.95613 5.59835 6.43168C6.1228 5.90724 6.79098 5.55008 7.51841 5.40539C8.24584 5.2607 8.99984 5.33496 9.68506 5.61879C10.3703 5.90262 10.956 6.38326 11.368 6.99995C11.7801 7.61663 12 8.34165 12 9.08333C11.9989 10.0776 11.6035 11.0307 10.9004 11.7338C10.1974 12.4368 9.24422 12.8322 8.25 12.8333ZM8.25 7C7.83796 7 7.43516 7.12219 7.09256 7.35111C6.74996 7.58003 6.48293 7.9054 6.32525 8.28608C6.16757 8.66676 6.12631 9.08565 6.2067 9.48977C6.28708 9.8939 6.4855 10.2651 6.77686 10.5565C7.06822 10.8478 7.43943 11.0463 7.84356 11.1266C8.24769 11.207 8.66658 11.1658 9.04726 11.0081C9.42794 10.8504 9.75331 10.5834 9.98223 10.2408C10.2111 9.89817 10.3333 9.49538 10.3333 9.08333C10.3333 8.5308 10.1138 8.0009 9.72314 7.6102C9.33244 7.21949 8.80253 7 8.25 7ZM14.5 21.1667V20.75C14.5 19.0924 13.8415 17.5027 12.6694 16.3306C11.4973 15.1585 9.9076 14.5 8.25 14.5C6.5924 14.5 5.00268 15.1585 3.83058 16.3306C2.65848 17.5027 2 19.0924 2 20.75L2 21.1667C2 21.3877 2.0878 21.5996 2.24408 21.7559C2.40036 21.9122 2.61232 22 2.83333 22C3.05435 22 3.26631 21.9122 3.42259 21.7559C3.57887 21.5996 3.66667 21.3877 3.66667 21.1667V20.75C3.66667 19.5344 4.14955 18.3686 5.00909 17.5091C5.86864 16.6496 7.03442 16.1667 8.25 16.1667C9.46558 16.1667 10.6314 16.6496 11.4909 17.5091C12.3504 18.3686 12.8333 19.5344 12.8333 20.75V21.1667C12.8333 21.3877 12.9211 21.5996 13.0774 21.7559C13.2337 21.9122 13.4457 22 13.6667 22C13.8877 22 14.0996 21.9122 14.2559 21.7559C14.4122 21.5996 14.5 21.3877 14.5 21.1667ZM22 17C22 15.8739 21.674 14.7719 21.0614 13.827C20.4489 12.8821 19.5759 12.1347 18.5479 11.675C17.5199 11.2153 16.3808 11.063 15.2681 11.2364C14.1555 11.4099 13.1168 11.9017 12.2775 12.6525C12.1948 12.7252 12.1273 12.8135 12.079 12.9124C12.0306 13.0113 12.0023 13.1188 11.9957 13.2287C11.9892 13.3386 12.0044 13.4487 12.0406 13.5526C12.0768 13.6566 12.1333 13.7523 12.2067 13.8343C12.2801 13.9164 12.3691 13.983 12.4684 14.0305C12.5678 14.0779 12.6755 14.1052 12.7855 14.1108C12.8954 14.1163 13.0054 14.1 13.109 14.0629C13.2126 14.0257 13.3078 13.9684 13.3892 13.8942C13.9887 13.358 14.7306 13.0068 15.5253 12.8831C16.3201 12.7593 17.1336 12.8681 17.8678 13.1965C18.6021 13.5249 19.2255 14.0588 19.663 14.7337C20.1005 15.4086 20.3333 16.1957 20.3333 17C20.3333 17.221 20.4211 17.433 20.5774 17.5893C20.7337 17.7455 20.9457 17.8333 21.1667 17.8333C21.3877 17.8333 21.5996 17.7455 21.7559 17.5893C21.9122 17.433 22 17.221 22 17ZM16.5833 9.5C15.8417 9.5 15.1166 9.28007 14.4999 8.86801C13.8833 8.45596 13.4026 7.87029 13.1188 7.18506C12.835 6.49984 12.7607 5.74584 12.9054 5.01841C13.0501 4.29098 13.4072 3.6228 13.9317 3.09835C14.4561 2.5739 15.1243 2.21675 15.8517 2.07206C16.5792 1.92736 17.3332 2.00162 18.0184 2.28545C18.7036 2.56928 19.2893 3.04993 19.7013 3.66661C20.1134 4.2833 20.3333 5.00832 20.3333 5.75C20.3322 6.74422 19.9368 7.69741 19.2338 8.40043C18.5307 9.10346 17.5776 9.4989 16.5833 9.5ZM16.5833 3.66667C16.1713 3.66667 15.7685 3.78885 15.4259 4.01777C15.0833 4.24669 14.8163 4.57206 14.6586 4.95274C14.5009 5.33342 14.4596 5.75231 14.54 6.15644C14.6204 6.56057 14.8188 6.93178 15.1102 7.22314C15.4016 7.5145 15.7728 7.71292 16.1769 7.7933C16.581 7.87369 16.9999 7.83243 17.3806 7.67475C17.7613 7.51707 18.0866 7.25004 18.3156 6.90744C18.5445 6.56484 18.6667 6.16205 18.6667 5.75C18.6667 5.19747 18.4472 4.66756 18.0565 4.27686C17.6658 3.88616 17.1359 3.66667 16.5833 3.66667Z" fill="#A498D9"/>
</svg>
