<svg width="25" height="24" viewBox="0 0 25 24" fill="none" xmlns="http://www.w3.org/2000/svg">
<path d="M11 2C9.02219 2 7.08879 2.58649 5.4443 3.6853C3.79981 4.78412 2.51809 6.3459 1.76121 8.17317C1.00433 10.0004 0.806299 12.0111 1.19215 13.9509C1.578 15.8907 2.53041 17.6725 3.92894 19.0711C5.32746 20.4696 7.10929 21.422 9.0491 21.8079C10.9889 22.1937 12.9996 21.9957 14.8268 21.2388C16.6541 20.4819 18.2159 19.2002 19.3147 17.5557C20.4135 15.9112 21 13.9778 21 12C20.9971 9.34871 19.9426 6.80684 18.0679 4.9321C16.1932 3.05736 13.6513 2.00287 11 2ZM18.2058 7.83333H15.5217C14.9208 6.44082 14.1297 5.1384 13.1708 3.96333C15.2929 4.54077 17.1019 5.93122 18.2058 7.83333ZM14.75 12C14.7432 12.8484 14.6095 13.6911 14.3533 14.5H7.64667C7.39055 13.6911 7.25685 12.8484 7.25 12C7.25685 11.1516 7.39055 10.3089 7.64667 9.5H14.3533C14.6095 10.3089 14.7432 11.1516 14.75 12ZM8.315 16.1667H13.685C12.9777 17.5631 12.0735 18.8507 11 19.99C9.92615 18.851 9.02187 17.5634 8.315 16.1667ZM8.315 7.83333C9.02231 6.43689 9.92654 5.1493 11 4.01C12.0739 5.14898 12.9781 6.43663 13.685 7.83333H8.315ZM8.83334 3.96333C7.87305 5.13815 7.08049 6.44058 6.47834 7.83333H3.79417C4.89905 5.93036 6.70972 4.5398 8.83334 3.96333ZM3.05084 9.5H5.91667C5.70064 10.316 5.58864 11.1559 5.58334 12C5.58864 12.8441 5.70064 13.684 5.91667 14.5H3.05084C2.53862 12.8727 2.53862 11.1273 3.05084 9.5ZM3.79417 16.1667H6.47834C7.08049 17.5594 7.87305 18.8618 8.83334 20.0367C6.70972 19.4602 4.89905 18.0696 3.79417 16.1667ZM13.1708 20.0367C14.1297 18.8616 14.9208 17.5592 15.5217 16.1667H18.2058C17.1019 18.0688 15.2929 19.4592 13.1708 20.0367ZM18.9492 14.5H16.0833C16.2994 13.684 16.4114 12.8441 16.4167 12C16.4114 11.1559 16.2994 10.316 16.0833 9.5H18.9475C19.4597 11.1273 19.4597 12.8727 18.9475 14.5H18.9492Z" fill="white"/>
</svg>
