<svg width="16" height="16" viewBox="0 0 16 16" fill="none" xmlns="http://www.w3.org/2000/svg">
<path fill-rule="evenodd" clip-rule="evenodd" d="M15.8299 8.18178C15.8299 7.6145 15.779 7.06905 15.6845 6.54541H8.1499V9.63996H12.4554C12.2699 10.64 11.7063 11.4872 10.859 12.0545V14.0618H13.4445C14.9572 12.6691 15.8299 10.6181 15.8299 8.18178Z" fill="#4285F4"/>
<path fill-rule="evenodd" clip-rule="evenodd" d="M8.14959 16C10.3096 16 12.1205 15.2837 13.4442 14.0618L10.8587 12.0546C10.1423 12.5346 9.22596 12.8182 8.14959 12.8182C6.06595 12.8182 4.30231 11.4109 3.67322 9.52002H1.00049V11.5928C2.31685 14.2073 5.02232 16 8.14959 16Z" fill="#34A853"/>
<path fill-rule="evenodd" clip-rule="evenodd" d="M3.67355 9.51996C3.51355 9.03996 3.42264 8.52724 3.42264 7.99996C3.42264 7.47269 3.51355 6.95996 3.67355 6.47996V4.40723H1.00081C0.458994 5.48723 0.149902 6.70905 0.149902 7.99996C0.149902 9.29087 0.458994 10.5127 1.00081 11.5927L3.67355 9.51996Z" fill="#FBBC05"/>
<path fill-rule="evenodd" clip-rule="evenodd" d="M8.14959 3.18183C9.32414 3.18183 10.3787 3.58546 11.2078 4.37819L13.5023 2.08364C12.1169 0.792729 10.306 0 8.14959 0C5.02232 0 2.31685 1.79273 1.00049 4.40728L3.67322 6.48001C4.30231 4.5891 6.06595 3.18183 8.14959 3.18183Z" fill="#EA4335"/>
</svg>
