<svg width="24" height="25" viewBox="0 0 24 25" fill="none" xmlns="http://www.w3.org/2000/svg">
<path d="M3.99921 20.5H12.4865C14.1447 20.4992 15.7665 20.0134 17.152 19.1024C18.5376 18.1915 19.6265 16.8951 20.2845 15.3731C20.9425 13.851 21.141 12.1697 20.8554 10.5362C20.5699 8.9028 19.8128 7.38855 18.6774 6.18001C17.542 4.97147 16.0779 4.12141 14.4654 3.73456C12.853 3.3477 11.1626 3.44093 9.60245 4.00276C8.04231 4.5646 6.68058 5.57051 5.68498 6.89658C4.68938 8.22265 4.1034 9.81098 3.99921 11.4659V11.5105V20.5ZM12.4865 4.91667C14.3651 4.91667 16.1668 5.66294 17.4951 6.99133C18.8235 8.31971 19.5698 10.1214 19.5698 12C19.5698 13.8786 18.8235 15.6803 17.4951 17.0087C16.1668 18.3371 14.3651 19.0833 12.4865 19.0833H5.41588V11.5332C5.53734 9.73993 6.33479 8.05956 7.64717 6.83145C8.95955 5.60335 10.6891 4.91902 12.4865 4.91667Z" fill="#795BDA"/>
<path d="M8 8.45801H12V9.87467H8V8.45801Z" fill="#795BDA"/>
<path d="M8 11.292H15V12.7087H8V11.292Z" fill="#795BDA"/>
<path d="M8 14.125H15V15.5417H8V14.125Z" fill="#795BDA"/>
</svg>
