<svg width="16" height="16" viewBox="0 0 16 16" fill="none" xmlns="http://www.w3.org/2000/svg">
<path fill-rule="evenodd" clip-rule="evenodd" d="M10.389 2.24238H10.4238C10.7636 2.24238 11.0512 1.99508 11.0773 1.67598L11.1383 0.630945C11.1557 0.303879 10.8856 0.016685 10.5197 0.000730155C10.1711 -0.0152246 9.85746 0.232083 9.83132 0.567134L9.77033 1.61217C9.7529 1.93925 10.023 2.22643 10.389 2.24238Z" fill="#FF5C8D"/>
<path fill-rule="evenodd" clip-rule="evenodd" d="M12.8924 3.04071C13.0753 3.04071 13.267 2.96892 13.3977 2.82532L14.1296 2.01163C14.3562 1.75635 14.3126 1.38141 14.0338 1.174C13.755 0.958611 13.3454 0.998498 13.1189 1.25377L12.387 2.06747C12.1604 2.32275 12.1953 2.69768 12.4741 2.9051C12.5961 3.00083 12.7442 3.04071 12.8924 3.04071Z" fill="#FF5C8D"/>
<path fill-rule="evenodd" clip-rule="evenodd" d="M15.9562 3.79793C15.8342 3.48681 15.4595 3.32726 15.1197 3.44693L14.048 3.81389C13.7082 3.92557 13.5339 4.2686 13.6646 4.57972C13.7604 4.81904 14.0131 4.97061 14.2745 4.97061C14.3529 4.97061 14.4314 4.96263 14.5011 4.93072L15.5728 4.56376C15.9126 4.45208 16.0869 4.10905 15.9562 3.79793Z" fill="#FF5C8D"/>
<path fill-rule="evenodd" clip-rule="evenodd" d="M2.8991 3.47489L3.11693 3.83388C3.33476 3.8977 3.53517 4.0014 3.70072 4.12904C3.77043 4.1769 3.83142 4.23275 3.89241 4.28859C4.23223 3.84185 4.78117 3.54669 5.3911 3.5068L4.7986 2.5176C4.72889 2.40592 4.63304 2.30221 4.52848 2.23042C4.41521 2.14267 4.29322 2.08682 4.15381 2.04694C4.00569 2.00705 3.86627 1.99907 3.72686 2.01503C3.44803 2.03896 3.17792 2.17458 3.00366 2.37401C2.91652 2.47772 2.84682 2.5894 2.81196 2.72502C2.7684 2.85266 2.75097 2.98029 2.7684 3.10793C2.78582 3.22759 2.82939 3.35523 2.8991 3.47489Z" fill="#FF5C8D"/>
<path fill-rule="evenodd" clip-rule="evenodd" d="M6.13906 3.59455C6.59215 3.73815 6.99296 4.04129 7.22822 4.43218L8.42194 6.4265C8.63106 6.09148 8.93602 5.81227 9.31941 5.62081C9.45011 5.54902 9.58952 5.50115 9.73765 5.47722L7.82943 2.28626C7.69002 2.05491 7.45476 1.88739 7.18465 1.80761C6.627 1.66402 6.00836 1.96716 5.8341 2.48569C5.76439 2.74895 5.79053 3.0122 5.92994 3.24355L6.13906 3.59455Z" fill="#FF5C8D"/>
<path fill-rule="evenodd" clip-rule="evenodd" d="M12.0432 4.04915C11.9561 3.89758 11.808 3.79387 11.625 3.74601C11.4507 3.69017 11.259 3.7141 11.0935 3.79387C10.4226 4.12893 10.1525 4.87082 10.4661 5.49306C10.4749 5.49306 10.4836 5.50104 10.4923 5.50104C10.9018 5.61272 11.2416 5.85204 11.442 6.19507L12.8449 8.5404C13.2457 9.23444 13.4809 9.97634 13.5506 10.7262C13.6726 10.5028 13.7685 10.2715 13.8469 10.0322C14.2477 8.81164 14.0996 7.5193 13.4461 6.38653L12.0432 4.04915Z" fill="#FF5C8D"/>
<path fill-rule="evenodd" clip-rule="evenodd" d="M10.6852 6.57786C10.598 6.42631 10.4499 6.31464 10.267 6.26678C10.2495 6.25881 10.2321 6.25881 10.206 6.25881C10.1624 6.24286 10.1189 6.24285 10.0666 6.24285C9.95333 6.24285 9.84008 6.26678 9.73553 6.32262C9.02985 6.67358 8.76848 7.48716 9.16053 8.13324C9.16053 8.14122 9.17795 8.16515 9.17795 8.17313L9.88364 9.3616C9.96204 9.4972 9.90977 9.6647 9.76167 9.73649C9.70939 9.76839 9.65712 9.77637 9.61356 9.77637C9.52644 9.77637 9.44803 9.74446 9.39576 9.68863C9.37833 9.68065 9.36091 9.65672 9.34348 9.63279L7.66204 6.81715L6.45977 4.81509C6.3378 4.60771 6.13744 4.44818 5.90221 4.36842C5.87607 4.35247 5.84994 4.34449 5.81509 4.33651C5.77153 4.32854 5.72797 4.32056 5.68441 4.31258C5.63213 4.30461 5.57986 4.29663 5.52759 4.29663C5.50145 4.29663 5.47532 4.29663 5.44918 4.30461C5.37948 4.31258 5.3185 4.32056 5.2488 4.33651C5.21395 4.34449 5.1791 4.36044 5.14426 4.36842C5.10941 4.38437 5.06585 4.39235 5.031 4.4083C4.97872 4.44021 4.92645 4.46413 4.88289 4.49604C4.69122 4.61568 4.54312 4.79914 4.46471 5.0145C4.39501 5.26974 4.42115 5.54094 4.56054 5.77225L6.45977 8.94683C6.54689 9.08243 6.48591 9.25791 6.3378 9.32969C6.29424 9.35362 6.2507 9.3616 6.19842 9.3616C6.13744 9.3616 6.07645 9.34565 6.03289 9.32172C6.00676 9.31374 5.98062 9.29779 5.97191 9.27386C5.95448 9.25791 5.93706 9.24195 5.91963 9.21803L5.22266 8.04551L3.42797 5.04641C3.35827 4.93474 3.26244 4.83104 3.15789 4.75128C3.04463 4.67152 2.92266 4.60771 2.78327 4.5758C2.63516 4.53592 2.49577 4.51997 2.35637 4.53592C2.07759 4.56783 1.80751 4.70342 1.63327 4.90283C1.54615 4.99855 1.47645 5.11819 1.4416 5.24581C1.39804 5.37344 1.38062 5.50903 1.39804 5.63665C1.39804 5.65261 1.40675 5.67654 1.41547 5.69249C1.43289 5.79618 1.46774 5.89987 1.52872 5.99559L4.02039 10.1752C4.0988 10.2948 4.06395 10.4464 3.94198 10.5182C3.93327 10.5341 3.91585 10.5421 3.89842 10.5501C3.85486 10.574 3.8113 10.59 3.75903 10.59C3.64577 10.59 3.54122 10.5341 3.48024 10.4464L2.02531 8.00562C1.83365 7.68657 1.4416 7.49514 1.04956 7.49514C0.884025 7.49514 0.709783 7.53502 0.561677 7.60681C0.0476612 7.86205 -0.152718 8.49218 0.12607 8.95481L2.87039 13.5492C3.55865 14.6579 4.66509 15.4635 6.00676 15.8144C6.12873 15.8464 6.2507 15.8703 6.36394 15.8942C6.60788 15.9421 6.85182 15.974 7.09576 15.9899C7.21773 15.9899 7.33969 15.9979 7.46166 15.9979C8.33288 15.9979 9.19538 15.7985 9.97947 15.4077C11.1992 14.7935 12.0878 13.7885 12.4886 12.5601C12.5495 12.3607 12.6018 12.1693 12.6367 11.9699C12.8283 10.9329 12.6367 9.86411 12.0878 8.91492L10.6852 6.57786Z" fill="#FF5C8D"/>
</svg>
