<svg width="16" height="16" viewBox="0 0 16 16" fill="none" xmlns="http://www.w3.org/2000/svg">
<path d="M4.51865 15.1278C4.49465 15.1278 4.46265 15.1438 4.43865 15.1438C2.88666 14.3758 1.62267 13.1038 0.84668 11.5518C0.84668 11.5278 0.86268 11.4958 0.86268 11.4718C1.83867 11.7598 2.84666 11.9758 3.84666 12.1438C4.02265 13.1518 4.23065 14.1518 4.51865 15.1278Z" fill="#A498D9"/>
<path d="M15.1511 11.5598C14.3591 13.1518 13.0391 14.4398 11.4312 15.2158C11.7351 14.1998 11.9911 13.1758 12.1591 12.1438C13.1671 11.9758 14.1591 11.7598 15.1351 11.4718C15.1271 11.5038 15.1511 11.5358 15.1511 11.5598Z" fill="#A498D9"/>
<path d="M15.2151 4.56839C14.2071 4.2644 13.1911 4.0164 12.1591 3.8404C11.9911 2.80841 11.7431 1.78442 11.4312 0.784424C13.0871 1.57642 14.4231 2.91241 15.2151 4.56839Z" fill="#A498D9"/>
<path d="M4.52015 0.870924C4.23215 1.84692 4.02415 2.83891 3.85616 3.8469C2.82416 4.0069 1.80017 4.2629 0.78418 4.56689C1.56017 2.95891 2.84816 1.63892 4.44015 0.846924C4.46415 0.846924 4.49615 0.870924 4.52015 0.870924Z" fill="#A498D9"/>
<path d="M10.7934 3.67197C8.93743 3.46397 7.06544 3.46397 5.20947 3.67197C5.40947 2.57598 5.66547 1.47999 6.02547 0.423997C6.04147 0.359997 6.03347 0.311998 6.04147 0.247998C6.67345 0.0959992 7.32144 0 8.00144 0C8.67343 0 9.32942 0.0959992 9.95342 0.247998C9.96142 0.311998 9.96142 0.359997 9.97742 0.423997C10.3374 1.48799 10.5934 2.57598 10.7934 3.67197Z" fill="#A498D9"/>
<path d="M3.67197 10.7933C2.56798 10.5933 1.47999 10.3373 0.423997 9.9773C0.359997 9.9613 0.311998 9.9693 0.247998 9.9613C0.0959992 9.3293 0 8.68131 0 8.00131C0 7.32932 0.0959992 6.67332 0.247998 6.04934C0.311998 6.04134 0.359997 6.04134 0.423997 6.02534C1.48799 5.67335 2.56798 5.40935 3.67197 5.20935C3.47197 7.06532 3.47197 8.93731 3.67197 10.7933Z" fill="#A498D9"/>
<path d="M16.0001 8.00131C16.0001 8.68131 15.9041 9.3293 15.7521 9.9613C15.6881 9.9693 15.6401 9.9613 15.5761 9.9773C14.5121 10.3293 13.4241 10.5933 12.3281 10.7933C12.5361 8.93731 12.5361 7.06532 12.3281 5.20935C13.4241 5.40935 14.5201 5.66535 15.5761 6.02534C15.6401 6.04134 15.6881 6.04934 15.7521 6.04934C15.9041 6.68132 16.0001 7.32932 16.0001 8.00131Z" fill="#A498D9"/>
<path d="M10.7934 12.328C10.5934 13.432 10.3374 14.52 9.97742 15.576C9.96142 15.64 9.96142 15.688 9.95342 15.752C9.32942 15.904 8.67343 16 8.00144 16C7.32144 16 6.67345 15.904 6.04147 15.752C6.03347 15.688 6.04147 15.64 6.02547 15.576C5.67347 14.512 5.40947 13.432 5.20947 12.328C6.13747 12.432 7.06544 12.504 8.00144 12.504C8.93743 12.504 9.87342 12.432 10.7934 12.328Z" fill="#A498D9"/>
<path d="M11.0104 11.0105C9.00953 11.263 6.99003 11.263 4.98914 11.0105C4.73669 9.00965 4.73669 6.99015 4.98914 4.98926C6.99003 4.73682 9.00953 4.73682 11.0104 4.98926C11.2629 6.99015 11.2629 9.00965 11.0104 11.0105Z" fill="#A498D9"/>
</svg>
