<svg width="25" height="24" viewBox="0 0 25 24" fill="none" xmlns="http://www.w3.org/2000/svg">
<path d="M11.8326 6.16667C11.8326 5.28334 12.1992 4.45834 12.8742 3.85L14.5992 2.225C14.9326 1.90834 15.4576 1.925 15.7742 2.25834C16.0909 2.59167 16.0742 3.125 15.7409 3.43334L14.0076 5.05834C13.9159 5.14167 13.8409 5.23334 13.7742 5.325H16.8326C18.6742 5.325 20.1659 6.81667 20.1659 8.65834V10.325C20.1659 10.7833 19.7909 11.1583 19.3326 11.1583C18.8742 11.1583 18.4992 10.7833 18.4992 10.325V8.65834C18.4992 7.74167 17.7492 6.99167 16.8326 6.99167H13.7742C13.8409 7.08334 13.9159 7.16667 13.9992 7.25L15.7409 8.88334C16.0742 9.2 16.0909 9.725 15.7742 10.0583C15.6076 10.2333 15.3909 10.3167 15.1659 10.3167C14.9576 10.3167 14.7576 10.2417 14.5909 10.0917L12.8576 8.46667C12.1992 7.85834 11.8242 7.03334 11.8242 6.15834L11.8326 6.16667ZM10.1659 17.8333C10.1659 18.7167 9.79922 19.5333 9.12422 20.15L7.39922 21.775C7.24089 21.925 7.03255 22 6.82422 22C6.59922 22 6.38255 21.9083 6.21589 21.7417C5.89922 21.4083 5.91589 20.875 6.24922 20.5667L7.98255 18.9417C8.07422 18.8583 8.14922 18.7667 8.21589 18.675H5.15755C3.31588 18.675 1.82422 17.1833 1.82422 15.3417V13.675C1.82422 13.2167 2.19922 12.8417 2.65755 12.8417C3.11589 12.8417 3.49089 13.2167 3.49089 13.675V15.3417C3.49089 16.2583 4.24088 17.0083 5.15755 17.0083H8.21589C8.14922 16.9167 8.07422 16.8333 7.99089 16.75L6.24922 15.1167C5.91589 14.8 5.89922 14.275 6.21589 13.9417C6.53255 13.6083 7.05755 13.5917 7.39089 13.9083L9.12422 15.5333C9.78255 16.1417 10.1576 16.9667 10.1576 17.8417L10.1659 17.8333Z" fill="#795BDA"/>
<path fill-rule="evenodd" clip-rule="evenodd" d="M6.49922 9.4C8.10084 9.4 9.39922 8.10163 9.39922 6.5C9.39922 4.89837 8.10084 3.6 6.49922 3.6C4.89759 3.6 3.59922 4.89837 3.59922 6.5C3.59922 8.10163 4.89759 9.4 6.49922 9.4ZM6.49922 11C8.9845 11 10.9992 8.98528 10.9992 6.5C10.9992 4.01472 8.9845 2 6.49922 2C4.01394 2 1.99922 4.01472 1.99922 6.5C1.99922 8.98528 4.01394 11 6.49922 11Z" fill="#795BDA"/>
<path fill-rule="evenodd" clip-rule="evenodd" d="M15.9992 19.3941L17.6963 17.6971C18.6335 16.7598 18.6335 15.2402 17.6963 14.3029C16.759 13.3657 15.2394 13.3657 14.3022 14.3029C13.3649 15.2402 13.3649 16.7598 14.3022 17.6971L15.9992 19.3941ZM16.7063 20.9497C16.3158 21.3403 15.6826 21.3403 15.2921 20.9497L13.1708 18.8284C11.6087 17.2663 11.6087 14.7337 13.1708 13.1716C14.7329 11.6095 17.2655 11.6095 18.8276 13.1716C20.3897 14.7337 20.3897 17.2663 18.8276 18.8284L16.7063 20.9497Z" fill="#795BDA"/>
</svg>
