<svg width="24" height="24" viewBox="0 0 24 24" fill="none" xmlns="http://www.w3.org/2000/svg">
<path d="M12.8032 3.05282L17.0765 3.7193C19.3612 4.07541 20.5409 5.9766 20.199 8.35357L19.2781 14.7674C18.9363 17.1444 17.2746 18.6029 14.9889 18.2468L10.7165 17.5803C8.43187 17.2242 7.25215 15.3239 7.59308 12.946L8.51499 6.53217C8.85593 4.1552 10.5251 2.69866 12.8032 3.05282Z" stroke="#A498D9" stroke-width="1.5" stroke-linecap="round" stroke-linejoin="round"/>
<path d="M12.3234 8.85156L16.6387 9.49567M11.8281 12.4472L14.4172 12.8344" stroke="#A498D9" stroke-width="1.5" stroke-linecap="round" stroke-linejoin="round"/>
<path d="M8.65726 5.875L5.91115 6.81976C3.71425 7.57284 2.85118 9.65305 3.58348 11.9415L5.52725 18.0985C6.25114 20.3781 8.12579 21.5223 10.3134 20.7693L14.4288 19.3614C15.1181 19.1347 15.6925 18.7533 16.111 18.2716" stroke="#A498D9" stroke-width="1.5" stroke-linecap="round" stroke-linejoin="round"/>
</svg>
