<svg width="16" height="16" viewBox="0 0 16 16" fill="none" xmlns="http://www.w3.org/2000/svg">
<path fill-rule="evenodd" clip-rule="evenodd" d="M12.6783 5.95209H10.9801C10.6882 5.95209 10.4907 5.62128 10.5861 5.3454C11.1675 3.66343 11.3331 0.222914 8.51385 0.167546C8.4693 0.16667 8.42281 0.174579 8.38154 0.191423C7.95764 0.364519 7.85143 0.579441 7.76224 0.998671C7.19407 3.56016 5.95561 4.97272 4.82814 5.53034C4.76623 5.56096 4.74996 5.63796 4.78086 5.69975C5.136 6.35395 5.136 6.9895 5.136 8.04558V13.2326C5.136 13.7143 5.136 14.1105 5.10041 14.4612C5.08326 14.6303 5.1685 14.7968 5.32355 14.8662C6.11374 15.2197 6.93803 15.5224 7.76224 15.5224H11.9306C14.3325 15.5224 15.9961 13.9617 15.9961 11.3822C15.9961 8.68113 16.1924 5.95209 12.6783 5.95209Z" fill="#6A8BFF"/>
<path fill-rule="evenodd" clip-rule="evenodd" d="M2.75709 5.64326C2.46269 5.50774 1.48228 5.48157 0.603756 5.47596C0.270105 5.47409 0 5.74513 0 6.07785V15.2305C0 15.5641 0.270105 15.8342 0.603756 15.8324C1.48228 15.8276 2.46269 15.8015 2.75709 15.665C3.10289 15.5062 3.38327 15.2538 3.5515 14.936C3.73843 14.5996 3.73843 14.151 3.73843 13.2631V8.04522C3.73843 7.15734 3.73843 6.70868 3.5515 6.37229C3.38327 6.05448 3.10289 5.80214 2.75709 5.64326Z" fill="#6A8BFF"/>
</svg>
