<svg width="25" height="24" viewBox="0 0 25 24" fill="none" xmlns="http://www.w3.org/2000/svg">
<path d="M14.9997 22H9.99967C7.70217 22 5.83301 20.1308 5.83301 17.8333V6.16667C5.83301 3.86917 7.70217 2 9.99967 2H14.9997C17.2972 2 19.1663 3.86917 19.1663 6.16667V17.8333C19.1663 20.1308 17.2972 22 14.9997 22ZM9.99967 3.66667C8.62134 3.66667 7.49967 4.78833 7.49967 6.16667V17.8333C7.49967 19.2117 8.62134 20.3333 9.99967 20.3333H14.9997C16.378 20.3333 17.4997 19.2117 17.4997 17.8333V6.16667C17.4997 4.78833 16.378 3.66667 14.9997 3.66667H9.99967ZM14.1663 17.8333C14.1663 17.6123 14.0785 17.4004 13.9223 17.2441C13.766 17.0878 13.554 17 13.333 17H11.6663C11.4453 17 11.2334 17.0878 11.0771 17.2441C10.9208 17.4004 10.833 17.6123 10.833 17.8333C10.833 18.0543 10.9208 18.2663 11.0771 18.4226C11.2334 18.5789 11.4453 18.6667 11.6663 18.6667H13.333C13.554 18.6667 13.766 18.5789 13.9223 18.4226C14.0785 18.2663 14.1663 18.0543 14.1663 17.8333Z" fill="#795BDA"/>
</svg>
