<svg width="16" height="16" viewBox="0 0 16 16" fill="none" xmlns="http://www.w3.org/2000/svg">
<g clip-path="url(#clip0_2445_197614)">
<path fill-rule="evenodd" clip-rule="evenodd" d="M5.40215 9.28818H4.02888C3.67041 9.28818 3.37947 8.99725 3.37947 8.63878C3.37947 8.28031 3.67041 7.98937 4.02888 7.98937H5.40215C5.76062 7.98937 6.05155 8.28031 6.05155 8.63878C6.05155 8.99725 5.76062 9.28818 5.40215 9.28818ZM4.02974 4.3562H7.39363C7.7521 4.3562 8.04303 4.64713 8.04303 5.0056C8.04303 5.36407 7.7521 5.655 7.39363 5.655H4.02974C3.67127 5.655 3.38034 5.36407 3.38034 5.0056C3.38034 4.64713 3.67127 4.3562 4.02974 4.3562ZM7.4603 13.9725L7.29925 13.8106C6.89055 13.4054 6.6611 12.8582 6.6585 12.2754C6.65504 11.691 6.88016 11.142 7.29145 10.7273C7.30098 10.716 7.31137 10.7065 7.32176 10.6961L7.4603 10.5584V10.3272C7.4603 9.12453 8.4396 8.1435 9.64316 8.14177H9.87868L10.0363 7.98418C10.4424 7.57289 10.9905 7.34257 11.574 7.33997H11.5844C12.1654 7.33997 12.7118 7.5651 13.124 7.97465C13.1344 7.98418 13.1439 7.99457 13.1534 8.00496L13.2404 8.09146C13.2729 8.12367 13.3168 8.14177 13.3625 8.14177H13.524C13.6479 8.14177 13.7679 8.15528 13.8851 8.1777C13.9979 8.19935 14.1076 8.11692 14.1076 8.0021V3.8081C14.1076 1.70836 12.3992 0 10.3004 0H4.48692C2.38805 0 0.679688 1.70836 0.679688 3.8081V11.8044C0.679688 13.9033 2.38805 15.6108 4.48692 15.6108H7.61208C7.75954 15.6108 7.84414 15.4339 7.76829 15.3074C7.57459 14.9843 7.4603 14.6095 7.4603 14.2063V13.9725Z" fill="#FFC045"/>
<path fill-rule="evenodd" clip-rule="evenodd" d="M13.104 11.9407L11.6095 13.4361C11.5038 13.5409 11.361 13.6006 11.2112 13.6006C11.0622 13.5998 10.9185 13.5409 10.8129 13.4352L10.0881 12.7079C9.86819 12.488 9.86906 12.1312 10.089 11.9122C10.3089 11.6914 10.6657 11.694 10.8847 11.913L11.212 12.2412L12.3082 11.1441C12.5273 10.9242 12.884 10.9242 13.104 11.1441C13.3239 11.3641 13.3239 11.7208 13.104 11.9407ZM14.9561 11.3875L14.6998 11.1312C14.6313 11.0619 14.5915 10.9666 14.5915 10.8679V10.5017C14.5915 9.81763 14.0356 9.26088 13.3516 9.26088H12.9836C12.8849 9.26088 12.7914 9.22278 12.7212 9.15264L12.4597 8.89202C12.2242 8.65823 11.9307 8.50844 11.58 8.53181C11.2493 8.53355 10.9384 8.66429 10.7072 8.89808L10.4527 9.15264C10.3825 9.22278 10.289 9.26088 10.1886 9.26088H9.82057C9.13826 9.26261 8.58237 9.8185 8.58237 10.5008L8.58151 10.8671C8.58151 10.9649 8.54168 11.061 8.47328 11.1303L8.23689 11.3684C8.22737 11.3762 8.21871 11.3831 8.21092 11.3918C7.978 11.6273 7.84985 11.939 7.85158 12.2706C7.85331 12.6014 7.98319 12.9123 8.21611 13.1426L8.47241 13.4006C8.54341 13.4716 8.58237 13.5643 8.58237 13.6621V14.0318C8.58237 14.715 9.13826 15.2718 9.82144 15.2718H10.1877C10.2855 15.2718 10.3808 15.3116 10.4501 15.3791L10.7124 15.6406C10.9462 15.8727 11.2562 16 11.5852 16H11.5895C11.9212 15.9991 12.232 15.8683 12.4623 15.6363L12.7212 15.3783C12.7905 15.3081 12.884 15.27 12.9827 15.27H13.3533C14.0356 15.27 14.5915 14.715 14.5924 14.0318V13.663C14.5924 13.5643 14.6314 13.4707 14.6989 13.4015L14.9604 13.1408C15.4418 12.656 15.4401 11.8697 14.9561 11.3875Z" fill="#FFC045"/>
</g>
<defs>
<clipPath id="clip0_2445_197614">
<rect width="16" height="16" fill="white"/>
</clipPath>
</defs>
</svg>
