<svg width="40" height="41" viewBox="0 0 40 41" fill="none" xmlns="http://www.w3.org/2000/svg">
<g clip-path="url(#clip0_757_2271)">
<path d="M13.6382 28.8312H9.10794V39.9226H13.6382M13.6382 28.8312V39.9226M13.6382 28.8312H14.0611C16.5453 28.8312 18.5591 26.8174 18.5591 24.3332V20.7079H19.6852C21.781 20.7079 23.4799 22.4068 23.4799 24.5026V27.8158H26.692C28.5121 27.8158 29.9025 29.4403 29.6215 31.2386L28.6564 37.4153C28.4308 38.8586 27.1877 39.9226 25.7269 39.9226H13.6382" stroke="#795BDA" stroke-width="2" stroke-miterlimit="10"/>
<path d="M22.1383 5.5152L20.1212 2.97729L18.1041 5.5152L15.0672 6.64926L16.8575 9.35189L16.9977 12.5907L20.1212 11.7231L23.2448 12.5907L23.385 9.35189L25.1753 6.64926L22.1383 5.5152Z" stroke="#795BDA" stroke-width="2" stroke-miterlimit="10"/>
<path d="M35.1594 15.5152L33.1423 12.9773L31.1253 15.5152L28.0882 16.6493L29.8787 19.3519L30.0188 22.5907L33.1423 21.7231L36.2659 22.5907L36.406 19.3519L38.1964 16.6493L35.1594 15.5152Z" stroke="#A498D9" stroke-miterlimit="10"/>
<path d="M9.07116 15.5152L7.05409 12.9773L5.03702 15.5152L2 16.6493L3.7904 19.3519L3.93053 22.5907L7.05409 21.7231L10.1777 22.5907L10.3178 19.3519L12.1082 16.6493L9.07116 15.5152Z" stroke="#A498D9" stroke-miterlimit="10"/>
</g>
<defs>
<clipPath id="clip0_757_2271">
<rect width="40" height="40" fill="white" transform="translate(0 0.977295)"/>
</clipPath>
</defs>
</svg>
