<svg width="24" height="24" viewBox="0 0 24 24" fill="none" xmlns="http://www.w3.org/2000/svg">
<path d="M4.08333 4.08333C4.08333 2.93333 5.01667 2 6.16667 2C7.31667 2 8.25 2.93333 8.25 4.08333C8.25 5.23333 7.31667 6.16667 6.16667 6.16667C5.01667 6.16667 4.08333 5.23333 4.08333 4.08333ZM7.83333 14.5H5.33333C4.41667 14.5 3.66667 13.75 3.66667 12.8333V10.3333C3.66667 9.41667 4.41667 8.66667 5.33333 8.66667C5.79167 8.66667 6.16667 8.29167 6.16667 7.83333C6.16667 7.375 5.79167 7 5.33333 7C3.49167 7 2 8.49167 2 10.3333V12.8333C2 14.0667 2.675 15.1417 3.66667 15.7167V21.1667C3.66667 21.625 4.04167 22 4.5 22C4.95833 22 5.33333 21.625 5.33333 21.1667V16.1667H7V21.1667C7 21.625 7.375 22 7.83333 22C8.29167 22 8.66667 21.625 8.66667 21.1667V15.3333C8.66667 14.875 8.29167 14.5 7.83333 14.5ZM17.8333 6.16667C18.9833 6.16667 19.9167 5.23333 19.9167 4.08333C19.9167 2.93333 18.9833 2 17.8333 2C16.6833 2 15.75 2.93333 15.75 4.08333C15.75 5.23333 16.6833 6.16667 17.8333 6.16667ZM18.6667 7C18.2083 7 17.8333 7.375 17.8333 7.83333C17.8333 8.29167 18.2083 8.66667 18.6667 8.66667C19.5833 8.66667 20.3333 9.41667 20.3333 10.3333V12.8333C20.3333 13.75 19.5833 14.5 18.6667 14.5H16.1667C15.7083 14.5 15.3333 14.875 15.3333 15.3333V21.1667C15.3333 21.625 15.7083 22 16.1667 22C16.625 22 17 21.625 17 21.1667V16.1667H18.6667V21.1667C18.6667 21.625 19.0417 22 19.5 22C19.9583 22 20.3333 21.625 20.3333 21.1667V15.7167C21.325 15.1417 22 14.0583 22 12.8333V10.3333C22 8.49167 20.5083 7 18.6667 7ZM16.275 8.59167L14.9333 7.25C14.6083 6.925 14.0833 6.925 13.7583 7.25C13.4333 7.575 13.4333 8.1 13.7583 8.425L14.8333 9.5H9.16667L10.2417 8.425C10.5667 8.1 10.5667 7.575 10.2417 7.25C9.91667 6.925 9.39167 6.925 9.06667 7.25L7.725 8.59167C6.76667 9.55 6.76667 11.1167 7.725 12.0833L9.06667 13.425C9.23333 13.5917 9.44167 13.6667 9.65833 13.6667C9.875 13.6667 10.0833 13.5833 10.25 13.425C10.575 13.1 10.575 12.575 10.25 12.25L9.175 11.175H14.8417L13.7667 12.25C13.4417 12.575 13.4417 13.1 13.7667 13.425C13.9333 13.5917 14.1417 13.6667 14.3583 13.6667C14.575 13.6667 14.7833 13.5833 14.95 13.425L16.2917 12.0833C17.25 11.125 17.25 9.55833 16.2917 8.59167H16.275Z" fill="#A498D9"/>
</svg>
