<svg width="24" height="24" viewBox="0 0 24 24" fill="none" xmlns="http://www.w3.org/2000/svg">
<path d="M10.5 22C16.0223 22 20.5 17.5223 20.5 12C20.5 6.47773 16.0223 2 10.5 2C4.97773 2 0.5 6.47773 0.5 12C0.5 17.5223 4.97773 22 10.5 22Z" fill="#E8E8E8"/>
<path d="M19.8777 15.4765C20.7074 13.2322 20.7074 10.7653 19.8777 8.521H1.12227C0.292577 10.7653 0.292577 13.2322 1.12227 15.4765L10.5 16.3503L19.8777 15.4765Z" fill="#2177DF"/>
<path d="M10.5008 22C14.8008 22 18.4672 19.2891 19.8785 15.4766H1.12305C2.53594 19.2891 6.20078 22 10.5008 22Z" fill="#E8E8E8"/>
</svg>
