<svg width="24" height="24" viewBox="0 0 24 24" fill="none" xmlns="http://www.w3.org/2000/svg">
<path d="M3.75 8C3.75 6.20507 5.20507 4.75 7 4.75H18C19.7949 4.75 21.25 6.20507 21.25 8V16C21.25 17.7949 19.7949 19.25 18 19.25H15.4684C14.949 19.25 14.4565 19.4807 14.124 19.8797L12.6921 21.598C12.5921 21.7179 12.4079 21.7179 12.3079 21.598L10.876 19.8797C10.5435 19.4807 10.051 19.25 9.53163 19.25H7C5.20507 19.25 3.75 17.7949 3.75 16V8Z" stroke="#795BDA" stroke-width="1.5"/>
<path d="M10 12.005L11.892 13.9L15.79 10" stroke="#795BDA" stroke-width="1.5" stroke-linecap="round" stroke-linejoin="round"/>
</svg>
