<svg width="16" height="16" viewBox="0 0 16 16" fill="none" xmlns="http://www.w3.org/2000/svg">
<path fill-rule="evenodd" clip-rule="evenodd" d="M2.92713 9.54215C1.97145 9.54215 1.19399 10.3733 1.19399 11.3947V14.1458C1.19399 15.168 1.97145 16 2.92713 16C3.8828 16 4.66027 15.168 4.66027 14.1458V11.3947C4.66027 10.3733 3.8828 9.54215 2.92713 9.54215Z" fill="#74CD66"/>
<path fill-rule="evenodd" clip-rule="evenodd" d="M8.0971 7.48055C7.14142 7.48055 6.36396 8.30835 6.36396 9.32564V14.1462C6.36396 15.1676 7.14142 15.9996 8.0971 15.9996C9.05277 15.9996 9.83023 15.1676 9.83023 14.1462V9.32564C9.83023 8.30835 9.05277 7.48055 8.0971 7.48055Z" fill="#74CD66"/>
<path fill-rule="evenodd" clip-rule="evenodd" d="M13.2669 3.98153C12.3112 3.98153 11.5337 4.80933 11.5337 5.82663V14.1453C11.5337 15.1676 12.3112 15.9996 13.2669 15.9996C14.2225 15.9996 15 15.1676 15 14.1453V5.82663C15 4.80933 14.2225 3.98153 13.2669 3.98153Z" fill="#74CD66"/>
<path fill-rule="evenodd" clip-rule="evenodd" d="M8.17866 5.85227L13.6209 1.10654C13.8707 0.888789 13.9081 0.496497 13.7042 0.228875C13.4995 -0.0379164 13.1329 -0.0769793 12.8831 0.140776L7.86036 4.51998L6.53424 3.02894C6.33423 2.80287 6.00895 2.76963 5.77158 2.95081L1.24457 6.40831C0.98152 6.60861 0.921596 6.99841 1.10915 7.2785C1.22277 7.44805 1.40177 7.53864 1.58388 7.53864C1.70217 7.53864 1.82046 7.50041 1.92319 7.42312L6.03774 4.28061L7.38641 5.79908C7.59731 6.03512 7.94285 6.05756 8.17866 5.85227Z" fill="#74CD66"/>
</svg>
