<svg width="40" height="41" viewBox="0 0 40 41" fill="none" xmlns="http://www.w3.org/2000/svg">
<g clip-path="url(#clip0_757_2247)">
<path d="M31.0816 20.9861L33.3146 22.5104C33.7332 22.7961 34.0758 23.1798 34.3125 23.6279C34.5492 24.0761 34.6729 24.5753 34.6729 25.0822V26.7223M24.1553 26.7223V25.0822C24.1553 24.5753 24.279 24.0761 24.5157 23.6279C24.7524 23.1798 25.095 22.7961 25.5136 22.5104L27.7465 20.9861" stroke="#A498D9" stroke-miterlimit="10"/>
<path d="M29.4141 21.446C31.2093 21.446 32.6646 19.9907 32.6646 18.1955C32.6646 16.4003 31.2093 14.9449 29.4141 14.9449C27.6188 14.9449 26.1635 16.4003 26.1635 18.1955C26.1635 19.9907 27.6188 21.446 29.4141 21.446Z" stroke="#A498D9" stroke-miterlimit="10"/>
<path d="M12.2535 20.9861L14.4865 22.5104C14.9051 22.7961 15.2477 23.1798 15.4844 23.6279C15.7211 24.0761 15.8448 24.5753 15.8448 25.0822V26.7223M5.32712 26.7223V25.0822C5.32711 24.5753 5.45083 24.0761 5.68753 23.6279C5.92424 23.1798 6.26678 22.7961 6.6854 22.5104L8.91829 20.9861" stroke="#A498D9" stroke-miterlimit="10"/>
<path d="M10.5859 21.446C12.3812 21.446 13.8365 19.9907 13.8365 18.1955C13.8365 16.4003 12.3812 14.9449 10.5859 14.9449C8.79071 14.9449 7.33539 16.4003 7.33539 18.1955C7.33539 19.9907 8.79071 21.446 10.5859 21.446Z" stroke="#A498D9" stroke-miterlimit="10"/>
<path d="M29.4141 6.8562H36.8281C37.9327 6.8562 38.8281 7.75163 38.8281 8.8562V29.4293C38.8281 30.5339 37.9327 31.4293 36.8281 31.4293H3.17187C2.06731 31.4293 1.17188 30.5339 1.17188 29.4293V8.8562C1.17188 7.75163 2.06731 6.8562 3.17188 6.8562H10.5859M20 9.20972V26.7223M1.17188 26.7223H38.8281M32.9492 12.1227H35.293M15.293 31.4293V34.7526C15.293 36.2434 14.0845 37.4518 12.5938 37.4518M24.707 31.4293V34.7526C24.707 36.2434 25.9155 37.4518 27.4062 37.4518M9.51227 37.4519H30.4877" stroke="#795BDA" stroke-width="2" stroke-miterlimit="10"/>
<path d="M29.4141 8.20972C29.4141 9.31429 28.5186 10.2097 27.4141 10.2097H17.6465L12.9395 12.5632V10.2097H12.5859C11.4814 10.2097 10.5859 9.31429 10.5859 8.20972V6.50269C10.5859 5.39812 11.4814 4.50269 12.5859 4.50269H27.4141C28.5186 4.50269 29.4141 5.39812 29.4141 6.50269V8.20972Z" stroke="#795BDA" stroke-width="2" stroke-miterlimit="10"/>
</g>
<defs>
<clipPath id="clip0_757_2247">
<rect width="40" height="40" fill="white" transform="translate(0 0.977295)"/>
</clipPath>
</defs>
</svg>
