<svg width="17" height="16" viewBox="0 0 17 16" fill="none" xmlns="http://www.w3.org/2000/svg">
<g clip-path="url(#clip0_4118_15752)">
<path d="M13.3995 9.45477C13.1923 9.65554 13.0971 9.9459 13.1443 10.2307L13.8554 14.1661C13.9154 14.4997 13.7746 14.8373 13.4954 15.03C13.2219 15.23 12.8579 15.254 12.5596 15.094L9.01682 13.2463C8.89364 13.1807 8.75686 13.1455 8.61688 13.1415H8.40011C8.32492 13.1527 8.25133 13.1767 8.18413 13.2135L4.6406 15.07C4.46542 15.158 4.26705 15.1892 4.07267 15.158C3.59913 15.0684 3.28317 14.6173 3.36076 14.1414L4.07267 10.2059C4.11986 9.9187 4.02468 9.62674 3.8175 9.42277L0.929082 6.62313C0.687513 6.38877 0.603524 6.03681 0.71391 5.71925C0.821096 5.40249 1.09466 5.17132 1.42502 5.11933L5.4005 4.54261C5.70286 4.51141 5.96842 4.32744 6.10441 4.05547L7.85618 0.463939C7.89777 0.38395 7.95136 0.310359 8.01616 0.247968L8.08815 0.191975C8.12574 0.15038 8.16894 0.115985 8.21693 0.0879885L8.30412 0.0559927L8.4401 0H8.77686C9.07762 0.0311959 9.34238 0.211172 9.48076 0.479937L11.2557 4.05547C11.3837 4.31704 11.6325 4.49861 11.9196 4.54261L15.8951 5.11933C16.2311 5.16733 16.5118 5.39929 16.623 5.71925C16.7278 6.04001 16.6374 6.39196 16.3911 6.62313L13.3995 9.45477Z" fill="#A498D9"/>
</g>
<defs>
<clipPath id="clip0_4118_15752">
<rect width="16" height="16" fill="white" transform="translate(0.666016)"/>
</clipPath>
</defs>
</svg>
