<svg width="24" height="24" viewBox="0 0 24 24" fill="none" xmlns="http://www.w3.org/2000/svg">
<path d="M22 9.5C22.0019 9.04123 21.8775 8.59079 21.6405 8.198C21.4034 7.80521 21.0629 7.48521 20.6561 7.27305C20.2494 7.06089 19.7921 6.96474 19.3343 6.99515C18.8766 7.02555 18.436 7.18133 18.0609 7.44542C17.6857 7.70951 17.3905 8.07174 17.2075 8.49243C17.0245 8.91312 16.9608 9.37605 17.0234 9.83054C17.0859 10.285 17.2723 10.7135 17.5622 11.0691C17.852 11.4247 18.2341 11.6937 18.6666 11.8467V15.3333C18.6666 16.6594 18.1399 17.9312 17.2022 18.8689C16.2645 19.8065 14.9927 20.3333 13.6667 20.3333C12.3406 20.3333 11.0688 19.8065 10.1311 18.8689C9.19344 17.9312 8.66666 16.6594 8.66666 15.3333V15.2667C10.0534 15.0655 11.3215 14.3722 12.2395 13.3135C13.1574 12.2548 13.664 10.9012 13.6667 9.5V6.16667C13.6653 5.062 13.2259 4.00296 12.4448 3.22185C11.6637 2.44073 10.6047 2.00132 9.49999 2C9.27898 2 9.06702 2.0878 8.91074 2.24408C8.75446 2.40036 8.66666 2.61232 8.66666 2.83333C8.66666 3.05435 8.75446 3.26631 8.91074 3.42259C9.06702 3.57887 9.27898 3.66667 9.49999 3.66667C10.163 3.66667 10.7989 3.93006 11.2678 4.3989C11.7366 4.86774 12 5.50363 12 6.16667V9.5C12 10.6051 11.561 11.6649 10.7796 12.4463C9.9982 13.2277 8.9384 13.6667 7.83333 13.6667C6.72826 13.6667 5.66845 13.2277 4.88705 12.4463C4.10565 11.6649 3.66666 10.6051 3.66666 9.5V6.16667C3.66666 5.50363 3.93006 4.86774 4.3989 4.3989C4.86774 3.93006 5.50362 3.66667 6.16666 3.66667C6.38768 3.66667 6.59964 3.57887 6.75592 3.42259C6.9122 3.26631 6.99999 3.05435 6.99999 2.83333C6.99999 2.61232 6.9122 2.40036 6.75592 2.24408C6.59964 2.0878 6.38768 2 6.16666 2C5.062 2.00132 4.00296 2.44073 3.22185 3.22185C2.44073 4.00296 2.00132 5.062 2 6.16667L2 9.5C2.00268 10.9012 2.50924 12.2548 3.4272 13.3135C4.34515 14.3722 5.61326 15.0655 6.99999 15.2667V15.3333C6.99999 17.1014 7.70237 18.7971 8.95261 20.0474C10.2029 21.2976 11.8985 22 13.6667 22C15.4348 22 17.1305 21.2976 18.3807 20.0474C19.6309 18.7971 20.3333 17.1014 20.3333 15.3333V11.8467C20.8191 11.6749 21.2399 11.3573 21.5382 10.9372C21.8366 10.5172 21.9978 10.0152 22 9.5ZM19.5 10.3333C19.3352 10.3333 19.174 10.2845 19.037 10.1929C18.9 10.1013 18.7932 9.97117 18.7301 9.8189C18.667 9.66663 18.6505 9.49908 18.6827 9.33742C18.7148 9.17577 18.7942 9.02729 18.9107 8.91074C19.0273 8.7942 19.1758 8.71483 19.3374 8.68268C19.4991 8.65052 19.6666 8.66703 19.8189 8.7301C19.9712 8.79317 20.1013 8.89998 20.1929 9.03702C20.2844 9.17407 20.3333 9.33518 20.3333 9.5C20.3333 9.72101 20.2455 9.93297 20.0892 10.0893C19.933 10.2455 19.721 10.3333 19.5 10.3333Z" fill="#A498D9"/>
</svg>
