<svg width="58" height="56" viewBox="0 0 58 56" fill="none" xmlns="http://www.w3.org/2000/svg">
<rect width="58" height="56" rx="28" fill="#2D9CDB"/>
<path d="M16.7166 26.4521C16.7166 26.4521 29.1004 21.1836 33.3952 19.3285C35.0417 18.5865 40.6251 16.2119 40.6251 16.2119C40.6251 16.2119 43.2021 15.1731 42.9873 17.696C42.9157 18.7349 42.343 22.3708 41.7704 26.3037C40.9114 31.869 39.9808 37.9537 39.9808 37.9537C39.9808 37.9537 39.8377 39.6605 38.6208 39.9573C37.4039 40.2541 35.3995 38.9185 35.0417 38.6216C34.7553 38.399 29.673 35.0598 27.8119 33.4273C27.3108 32.9821 26.7381 32.0917 27.8834 31.0528C30.4604 28.604 33.5384 25.5617 35.3995 23.6324C36.2586 22.7419 37.1175 20.6642 33.5384 23.1871C28.4561 26.8231 23.4454 30.2365 23.4454 30.2365C23.4454 30.2365 22.3 30.9785 20.1526 30.3107C18.005 29.6429 15.4997 28.7524 15.4997 28.7524C15.4997 28.7524 13.7818 27.6394 16.7166 26.4521Z" fill="white"/>
</svg>
