<svg width="24" height="24" viewBox="0 0 24 24" fill="none" xmlns="http://www.w3.org/2000/svg">
<path d="M12 22C6.48583 22 2 17.5142 2 12C2 6.48583 6.48583 2 12 2C17.5142 2 22 6.48583 22 12C22 17.5142 17.5142 22 12 22ZM12 3.66667C7.405 3.66667 3.66667 7.405 3.66667 12C3.66667 16.595 7.405 20.3333 12 20.3333C16.595 20.3333 20.3333 16.595 20.3333 12C20.3333 7.405 16.595 3.66667 12 3.66667ZM16.1667 12C16.1667 11.5392 15.7942 11.1667 15.3333 11.1667H12.8333V7C12.8333 6.53917 12.46 6.16667 12 6.16667C11.54 6.16667 11.1667 6.53917 11.1667 7V12C11.1667 12.4608 11.54 12.8333 12 12.8333H15.3333C15.7942 12.8333 16.1667 12.4608 16.1667 12Z" fill="#A498D9"/>
</svg>
