<svg width="24" height="24" viewBox="0 0 24 24" fill="none" xmlns="http://www.w3.org/2000/svg">
<path d="M13.9371 5.35938H17.0204C19.5327 5.35938 21.0875 7.13799 21.0875 9.65023V16.7199C21.0875 19.2224 19.5327 21.001 17.0117 21.001H7.29552C4.78426 21.001 3.21094 19.2224 3.21094 16.7199V9.65023C3.21094 7.13799 4.79301 5.35938 7.29552 5.35938H10.3614" stroke="#A498D9" stroke-width="1.5" stroke-linecap="round" stroke-linejoin="round"/>
<path d="M6.40234 17.4598C6.40234 16.4946 7.16419 15.293 9.35826 15.293C11.5523 15.293 12.3142 16.4868 12.3142 17.452" stroke="#A498D9" stroke-width="1.5" stroke-linecap="round" stroke-linejoin="round"/>
<path fill-rule="evenodd" clip-rule="evenodd" d="M11.2449 11.3641C11.2449 12.4072 10.3993 13.2527 9.35634 13.2527C8.31427 13.2527 7.46875 12.4072 7.46875 11.3641C7.46875 10.3221 8.31427 9.47656 9.35634 9.47656C10.3993 9.47656 11.2449 10.3221 11.2449 11.3641Z" stroke="#A498D9" stroke-width="1.5" stroke-linecap="round" stroke-linejoin="round"/>
<path d="M14.2617 11.8281L17.71 11.8758M15.554 15.5044H17.7101" stroke="#A498D9" stroke-width="1.5" stroke-linecap="round" stroke-linejoin="round"/>
<path fill-rule="evenodd" clip-rule="evenodd" d="M13.039 7.46891H11.2633C10.7661 7.46891 10.3633 7.06609 10.3633 6.5689V3.90001C10.3633 3.40281 10.7661 3 11.2633 3H13.039C13.5362 3 13.939 3.40281 13.939 3.90001V6.5689C13.939 7.06609 13.5362 7.46891 13.039 7.46891Z" stroke="#A498D9" stroke-width="1.5" stroke-linecap="round" stroke-linejoin="round"/>
</svg>
