<svg width="34" height="14" viewBox="0 0 34 14" fill="none" xmlns="http://www.w3.org/2000/svg">
<path fill-rule="evenodd" clip-rule="evenodd" d="M15.6043 10.9579V6.9219H17.6873C18.5409 6.9219 19.2614 6.63589 19.8487 6.0718L19.9897 5.92879C21.0625 4.7609 20.992 2.94152 19.8487 1.86102C19.277 1.28899 18.4939 0.979138 17.6873 0.995028H14.3435V10.9579H15.6043ZM15.6044 5.69837V2.21851H17.7191C18.1734 2.21851 18.6042 2.3933 18.9253 2.7111C19.6067 3.37847 19.6224 4.49075 18.9645 5.18195C18.6434 5.52358 18.1891 5.71426 17.7191 5.69837H15.6044Z" fill="#3C4043"/>
<path fill-rule="evenodd" clip-rule="evenodd" d="M25.8708 4.67351C25.3305 4.17298 24.5943 3.91875 23.6625 3.91875C22.4643 3.91875 21.5637 4.36366 20.9686 5.24554L22.0806 5.95263C22.4878 5.34882 23.0438 5.04692 23.7486 5.04692C24.195 5.04692 24.6257 5.21376 24.9624 5.51567C25.2913 5.80168 25.4793 6.21481 25.4793 6.65178V6.94574C24.9937 6.67562 24.3829 6.53261 23.6311 6.53261C22.7541 6.53261 22.0493 6.73918 21.5246 7.16025C20.9999 7.58133 20.7336 8.13747 20.7336 8.84457C20.718 9.4881 20.9921 10.0999 21.4776 10.513C21.971 10.9579 22.5974 11.1804 23.3336 11.1804C24.2028 11.1804 24.8919 10.7911 25.4166 10.0125H25.4714V10.9579H26.6774V6.75507C26.6774 5.87319 26.4111 5.17404 25.8708 4.67351ZM22.4489 9.70261C22.1904 9.51193 22.0338 9.20208 22.0338 8.86839C22.0338 8.49499 22.2061 8.18514 22.5429 7.93884C22.8875 7.69255 23.3183 7.56543 23.8274 7.56543C24.5323 7.55749 25.0805 7.71639 25.4721 8.03418C25.4721 8.57443 25.2607 9.04318 24.8456 9.44042C24.4696 9.82178 23.9605 10.0363 23.4279 10.0363C23.0755 10.0442 22.7308 9.92506 22.4489 9.70261Z" fill="#3C4043"/>
<path d="M29.387 13.9531L33.6001 4.14121H32.2296L30.2797 9.03525H30.2562L28.2593 4.14121H26.8889L29.6532 10.5209L28.087 13.9531H29.387Z" fill="#3C4043"/>
<path d="M11.2515 6.04796C11.2515 5.65866 11.2202 5.26936 11.1576 4.88801H5.84029V7.08874H8.88657C8.76127 7.79583 8.35406 8.43142 7.7589 8.82867V10.2587H9.5757C10.6407 9.26563 11.2515 7.79583 11.2515 6.04796Z" fill="#4285F4"/>
<path d="M5.84052 11.6412C7.35974 11.6412 8.6438 11.1327 9.5757 10.2587L7.7589 8.82867C7.24988 9.17824 6.60013 9.37687 5.84052 9.37687C4.36828 9.37687 3.12314 8.36787 2.67677 7.01724H0.805155V8.49499C1.76054 10.4256 3.71047 11.6412 5.84052 11.6412Z" fill="#34A853"/>
<path d="M2.67677 7.01724C2.44181 6.31014 2.44202 5.53951 2.67699 4.82448V3.35467H0.805069C-0.00165683 4.96748 -0.00165683 6.87425 0.805069 8.48706L2.67677 7.01724Z" fill="#FBBC04"/>
<path d="M5.84052 2.46483C6.64711 2.44894 7.42239 2.75879 8.00188 3.32288L9.61508 1.68623C8.58921 0.716958 7.24227 0.184651 5.84052 0.200541C3.71047 0.200541 1.76046 1.42407 0.805069 3.35467L2.67677 4.8324C3.12314 3.47383 4.36828 2.46483 5.84052 2.46483Z" fill="#EA4335"/>
</svg>
