<svg width="58" height="56" viewBox="0 0 58 56" fill="none" xmlns="http://www.w3.org/2000/svg">
<rect width="58" height="56" rx="28" fill="#7360F2"/>
<path d="M28.6174 13.0007C27.7085 13.0058 26.7971 13.0593 25.8778 13.1688C24.12 13.3802 22.3779 13.7318 20.706 14.4833C18.0472 15.6781 16.1618 17.7059 15.6149 20.6533C15.3831 21.8965 15.1956 23.1575 15.0889 24.4262C14.8831 26.8896 15.0107 29.3607 15.7243 31.7885C16.2868 33.7016 17.3232 35.4212 19.1383 36.537C19.9065 37.0083 20.9195 37.2376 21.4482 37.477C21.5966 37.5458 21.6331 37.5866 21.6409 37.5968C21.6487 37.6044 21.6695 37.6222 21.6669 37.7751C21.6487 39.3342 21.6669 42.3504 21.6669 42.3504L21.6695 43H22.8596L23.0523 42.8166C23.0523 42.8166 26.0757 39.971 27.1695 38.7992C27.3674 38.5903 27.469 38.4731 27.4898 38.4604C27.508 38.4476 27.4768 38.44 27.6799 38.4349C29.1148 38.4069 30.547 38.3534 31.9793 38.2769C33.8673 38.175 35.7918 37.9993 37.6433 37.2427C39.2553 36.5829 40.6016 35.5053 41.4167 33.8901C42.2501 32.2343 42.6954 30.479 42.862 28.6627C43.1381 25.6388 43.0417 22.6098 42.1876 19.6242C41.685 17.874 40.6745 16.3939 39.1251 15.3495C37.2709 14.1012 35.1798 13.6324 33.133 13.3344C31.9377 13.1612 30.7345 13.0465 29.5262 13.0109C29.2241 13.0032 28.9221 12.9981 28.6174 13.0007ZM29.4898 14.3152C30.6382 14.3457 31.7866 14.4553 32.9376 14.6234C34.9116 14.9113 36.7735 15.3495 38.3699 16.4245C39.6641 17.2957 40.4714 18.4727 40.9037 19.9732C41.7006 22.7652 41.8021 25.6261 41.5339 28.548C41.3803 30.2319 40.9714 31.819 40.2188 33.3144C39.5548 34.634 38.5183 35.4721 37.1277 36.0402C35.5131 36.7 33.758 36.8758 31.909 36.9752C30.4924 37.0516 29.0731 37.1025 27.6538 37.1306C27.2971 37.1382 26.9481 37.2299 26.7007 37.4082C26.4533 37.5866 26.3414 37.7522 26.1877 37.9152C25.4065 38.7508 23.8492 40.2207 23.0002 41.0257C22.995 40.0525 22.9872 38.8756 23.0002 37.7904C23.0055 37.4566 22.9273 37.1153 22.732 36.8452C22.5367 36.5752 22.2685 36.4122 22.0107 36.295C21.2581 35.9536 20.2737 35.6938 19.8466 35.4314C18.3545 34.5143 17.5081 33.1386 17.0055 31.4267C16.3467 29.1875 16.2217 26.882 16.417 24.5357C16.5211 23.318 16.7008 22.0978 16.9274 20.8877C17.4013 18.3377 18.8909 16.7327 21.2607 15.6679C22.7581 14.9954 24.357 14.6642 26.0419 14.4629C27.1903 14.3254 28.3387 14.2821 29.4898 14.3152ZM29.771 17.5658C29.2215 17.5658 28.6877 17.6269 28.1695 17.739C27.8127 17.8205 27.5861 18.1695 27.6669 18.5211C27.7476 18.8726 28.107 19.0917 28.4663 19.0128C28.8856 18.9185 29.3231 18.8701 29.771 18.8701C33.0262 18.8701 35.6512 21.438 35.6512 24.6198C35.6512 25.0605 35.6017 25.4885 35.5053 25.9012C35.4246 26.2502 35.6486 26.6018 36.0079 26.6807C36.3673 26.7597 36.7241 26.5381 36.8048 26.1865C36.922 25.6821 36.9845 25.1599 36.9845 24.6198C36.9845 20.7323 33.7475 17.5658 29.771 17.5658ZM23.12 18.8726C23.0107 18.8676 22.8987 18.8752 22.7815 18.9007C21.5706 19.1631 20.3675 20.0216 20.3336 21.5552C20.3675 21.7692 20.3649 21.9984 20.4456 22.192C20.8414 23.1397 21.1852 24.1179 21.6799 25.0147C24.0888 29.3709 27.732 32.3999 32.3752 34.3232C32.9298 34.5525 33.5027 34.6009 34.0626 34.3716C34.8335 34.0583 35.4871 33.5743 35.922 32.8788C36.5183 31.9235 36.5262 31.2611 35.5444 30.5555C34.9012 30.0918 34.2684 29.6154 33.6173 29.162C32.6252 28.4742 31.5522 28.3544 30.8127 29.5619C30.7736 29.6231 30.7163 29.674 30.6668 29.725C30.2866 30.1199 29.8205 30.2167 29.3257 30.018C27.4481 29.2613 25.9976 28.0411 25.1226 26.2247C24.607 25.1573 24.7476 24.6223 25.7112 23.9116C25.8075 23.8428 25.8987 23.7689 25.9872 23.69C26.4091 23.3129 26.521 22.8646 26.271 22.3576C25.7059 21.2011 24.9534 20.1693 24.0002 19.2802C23.7424 19.0408 23.4482 18.8905 23.12 18.8726ZM29.7606 19.5223C29.4663 19.5223 29.1747 19.5452 28.8882 19.5936C28.646 19.6242 28.4403 19.7821 28.3518 20.0037C28.2632 20.2279 28.3075 20.4801 28.4637 20.6635C28.6226 20.8444 28.8726 20.9285 29.1122 20.8775C29.3205 20.8444 29.5392 20.8266 29.7606 20.8266C31.9272 20.8266 33.6668 22.5283 33.6668 24.6478C33.6668 24.8644 33.6486 25.0784 33.6147 25.2822C33.5626 25.5165 33.6486 25.7611 33.8335 25.9165C34.021 26.0693 34.2788 26.1126 34.5079 26.026C34.7345 25.9394 34.896 25.7382 34.9272 25.5012C34.9767 25.221 35.0001 24.9357 35.0001 24.6478C35.0001 21.8252 32.646 19.5223 29.7606 19.5223ZM29.6668 21.4787C29.4273 21.4762 29.2033 21.5985 29.0809 21.8023C28.9611 22.0061 28.9611 22.2557 29.0809 22.4595C29.2033 22.6633 29.4273 22.7856 29.6668 22.7831C30.7788 22.7831 31.6668 23.6518 31.6668 24.7395C31.6642 24.9739 31.7892 25.193 31.9976 25.3127C32.2059 25.4299 32.4611 25.4299 32.6694 25.3127C32.8778 25.193 33.0028 24.9739 33.0001 24.7395C33.0001 22.9461 31.5002 21.4787 29.6668 21.4787Z" fill="white"/>
</svg>
