<svg width="24" height="24" viewBox="0 0 24 24" fill="none" xmlns="http://www.w3.org/2000/svg">
<path d="M18.8251 14.5508L18.8317 14.5092C17.9409 12.9617 16.2809 12 14.5001 12C13.6951 12 12.9226 12.1925 12.2034 12.5717C12.0742 12.64 11.9267 12.64 11.7976 12.5717C11.0784 12.1917 10.3051 11.9992 9.50091 11.9992C7.72008 11.9992 6.06008 12.9608 5.18925 14.5475C3.25925 14.84 1.89175 16.5283 2.00675 18.4775C2.12341 20.4533 3.83841 22.0008 5.91008 22.0008H18.0892C20.1609 22.0008 21.8759 20.4533 21.9926 18.4775C22.1076 16.5333 20.7467 14.8475 18.8242 14.5517L18.8251 14.5508ZM18.0901 20.3333H5.91091C4.74008 20.3333 3.73508 19.4567 3.67091 18.3783C3.60675 17.2958 4.36591 16.3583 5.43758 16.1967C5.92008 16.1242 6.33758 15.82 6.61425 15.3408C7.20841 14.3083 8.31508 13.6667 9.50091 13.6667C10.0317 13.6667 10.5426 13.7942 11.0209 14.0467C11.6351 14.3708 12.3684 14.37 12.9809 14.0467C13.4584 13.795 13.9701 13.6675 14.5009 13.6675C15.6876 13.6675 16.7942 14.3092 17.3884 15.3408C17.6642 15.82 18.0817 16.1242 18.5651 16.1967C19.6359 16.3575 20.3942 17.2958 20.3309 18.3783C20.2667 19.4567 19.2609 20.3333 18.0901 20.3333ZM6.18008 9.8575C6.17841 9.74 6.16925 9.62167 6.16925 9.50167V9.48417C6.16925 6.25167 8.23841 5.0175 8.23841 5.0175C8.34091 4.9525 8.45508 4.905 8.58591 4.905C8.95091 4.905 9.24675 5.20083 9.24675 5.565C9.24675 5.76917 9.08508 5.9975 9.08508 6.37583C9.08508 7.06583 9.48591 7.83417 10.5509 7.83417C11.6159 7.83417 12.0017 7.06583 12.0017 6.37583C12.0017 5.5425 11.1684 5.16417 11.1684 3.91417C11.1684 3.55167 11.3267 2.79833 11.5051 2.45333C11.6559 2.16167 11.9517 2 12.2551 2C12.4159 2 12.5801 2.04583 12.7251 2.14083L13.5084 2.87917C13.7417 3.09833 13.9842 3.30833 14.2434 3.49583C15.2684 4.23917 17.8276 6.40583 17.8342 9.4925V9.50167C17.8342 9.645 17.8292 9.78667 17.8184 9.92667C17.7742 10.5133 17.1859 10.9158 16.6417 10.6917C15.9009 10.3858 16.1667 9.4925 16.1667 9.4925C16.1617 7.13 13.9434 5.3375 13.2634 4.845L13.2359 4.825C13.5351 5.36667 13.8609 6.1775 13.5259 7.31083C13.1401 8.615 11.8859 9.50833 10.5267 9.5C9.35258 9.49333 8.50091 8.9725 7.98925 8.23667C7.89591 8.59167 7.83675 9.005 7.83675 9.48333C7.83675 9.83917 8.00591 10.4192 7.43258 10.6692C6.86008 10.9192 6.18925 10.6325 6.18091 9.85667L6.18008 9.8575Z" fill="#A498D9"/>
</svg>
