<svg width="16" height="16" viewBox="0 0 16 16" fill="none" xmlns="http://www.w3.org/2000/svg">
<path d="M10.5528 0C13.024 0 14.4 1.424 14.4 3.864V12.128C14.4 14.608 13.024 16 10.5528 16H3.848C1.416 16 0 14.608 0 12.128V3.864C0 1.424 1.416 0 3.848 0H10.5528ZM4.064 10.992C3.824 10.968 3.592 11.08 3.464 11.288C3.336 11.488 3.336 11.752 3.464 11.96C3.592 12.16 3.824 12.28 4.064 12.248H10.336C10.6552 12.216 10.896 11.9432 10.896 11.624C10.896 11.296 10.6552 11.024 10.336 10.992H4.064ZM10.336 7.3432H4.064C3.7192 7.3432 3.44 7.624 3.44 7.968C3.44 8.312 3.7192 8.592 4.064 8.592H10.336C10.68 8.592 10.96 8.312 10.96 7.968C10.96 7.624 10.68 7.3432 10.336 7.3432ZM6.4552 3.72H4.064V3.728C3.7192 3.728 3.44 4.008 3.44 4.352C3.44 4.696 3.7192 4.976 4.064 4.976H6.4552C6.8 4.976 7.08 4.696 7.08 4.3432C7.08 4 6.8 3.72 6.4552 3.72Z" fill="#A498D9"/>
</svg>
